<?xml version="1.0" encoding="UTF-8"?>
<svg id="Calque_2" xmlns="http://www.w3.org/2000/svg" viewBox="0 0 1391.5 820">
  <defs>
    <style>
      .cls-1, .cls-2, .cls-3 {
        fill: #edd68c;
      }

      .cls-4, .cls-5, .cls-6 {
        fill-rule: evenodd;
      }

      .cls-4, .cls-7, .cls-8, .cls-9, .cls-10 {
        fill: #5dbaf9;
      }

      .cls-11, .cls-5, .cls-12, .cls-13 {
        fill: #6ad8b9;
      }

      .cls-14 {
        fill: #d5a9ff;
      }

      .cls-6 {
        fill: #fff;
      }

      .cls-7, .cls-12, .cls-8, .cls-13, .cls-3, .cls-15 {
        opacity: .5;
      }

      .cls-16 {
        fill: #40a9ff;
      }

      .cls-8, .cls-2, .cls-13, .cls-9 {
        isolation: isolate;
      }

      .cls-17 {
        fill: #cfa6ff;
      }

      .cls-18 {
        fill: #f9e491;
      }

      .cls-19 {
        fill: #5fd4b9;
      }
    </style>
  </defs>
  <g id="Calque_1-2" data-name="Calque_1">
    <g>
      <g class="cls-15">
        <rect class="cls-19" y="42" width="233" height="778" rx="82" ry="82"/>
      </g>
      <rect class="cls-19" x="0" width="233" height="233" rx="82" ry="82"/>
      <g id="Page-1">
        <g id="Icon-Set-Filled">
          <path id="spoon" class="cls-6" d="M116.05,39.39c-18.66,0-33.79,17.29-33.79,38.62,0,17.52,10.16,32.59,24.14,37.38v68.83c0,5.33,4.32,9.65,9.65,9.66h0c5.33,0,9.65-4.33,9.65-9.66v-68.83c13.98-4.79,24.14-19.86,24.14-37.38,0-21.33-15.13-38.62-33.79-38.62h0Z"/>
        </g>
      </g>
      <g>
        <g>
          <path class="cls-11" d="M50.9,540.36c-.95-.26-1.73-.62-2.33-1.1-.21-.15-.36-.32-.45-.49-.09-.17-.14-.39-.14-.66,0-.35.11-.66.33-.92s.47-.4.75-.4c.15,0,.3.03.45.07.15.05.33.14.54.26.6.38,1.21.65,1.83.83.62.17,1.29.26,2.04.26.92,0,1.63-.15,2.12-.46.49-.31.74-.75.74-1.32,0-.43-.23-.78-.68-1.05-.46-.27-1.26-.52-2.43-.76-1.3-.27-2.34-.59-3.12-.97-.78-.38-1.34-.85-1.7-1.41-.36-.56-.54-1.24-.54-2.04,0-.88.26-1.68.77-2.38.51-.71,1.22-1.26,2.12-1.66.9-.4,1.92-.6,3.06-.6,1.99,0,3.63.5,4.91,1.49.21.17.36.34.45.51s.14.39.14.64c0,.35-.11.66-.33.92-.22.27-.47.4-.75.4-.15,0-.3-.02-.43-.06-.13-.04-.32-.13-.56-.27-.57-.37-1.1-.64-1.59-.82-.48-.18-1.1-.27-1.84-.27-.85,0-1.53.17-2.02.49-.49.33-.73.78-.73,1.36,0,.34.09.61.28.83.19.22.5.41.95.58.44.17,1.07.34,1.88.53,1.9.42,3.27.96,4.11,1.62s1.25,1.56,1.25,2.71c0,.9-.25,1.69-.75,2.37s-1.2,1.22-2.1,1.6-1.95.57-3.14.57c-1.11,0-2.13-.13-3.09-.39Z"/>
          <path class="cls-11" d="M71.03,537.83c.18.22.26.51.26.86,0,.24-.07.46-.21.66-.14.2-.34.38-.59.52-.48.25-1.03.46-1.66.62-.63.16-1.21.24-1.74.24-1.12,0-2.1-.22-2.93-.65-.83-.43-1.47-1.05-1.92-1.86-.45-.81-.67-1.75-.67-2.85s.22-1.98.65-2.79c.43-.81,1.04-1.45,1.81-1.9.77-.46,1.64-.68,2.62-.68s1.76.21,2.47.62c.71.41,1.26,1,1.65,1.76.39.76.59,1.66.59,2.68,0,.31-.07.54-.22.7-.15.16-.35.24-.62.24h-5.88c.1.83.35,1.43.76,1.8.41.37.99.56,1.74.56.41,0,.77-.05,1.09-.15.32-.1.68-.23,1.07-.4.2-.08.38-.16.57-.22.18-.06.34-.09.48-.09.28,0,.51.11.68.34ZM65.29,532.76c-.36.38-.58.94-.65,1.67h4.05c-.04-.74-.23-1.3-.56-1.68-.33-.38-.79-.57-1.4-.57s-1.08.19-1.45.58Z"/>
          <path class="cls-11" d="M82.49,531.08c.6.72.9,1.81.9,3.27v4.85c0,.46-.14.83-.43,1.09s-.68.4-1.17.4-.88-.13-1.16-.4c-.28-.27-.42-.63-.42-1.09v-4.7c0-.7-.13-1.21-.39-1.53-.26-.32-.66-.48-1.21-.48-.66,0-1.19.21-1.59.63s-.6.98-.6,1.68v4.41c0,.46-.14.83-.42,1.09s-.67.4-1.16.4-.88-.13-1.17-.4c-.29-.27-.43-.63-.43-1.09v-7.71c0-.43.15-.79.45-1.05s.69-.4,1.17-.4c.43,0,.79.13,1.06.39.27.26.41.59.41,1v.29c.36-.56.84-.99,1.42-1.28.58-.29,1.24-.44,1.96-.44,1.23,0,2.15.36,2.75,1.08Z"/>
          <path class="cls-11" d="M95.75,526.05c.3.27.45.62.45,1.05v12.1c0,.45-.14.81-.43,1.08-.29.27-.67.41-1.14.41s-.86-.14-1.14-.41c-.29-.27-.43-.63-.43-1.08v-.17c-.31.53-.75.95-1.31,1.25-.57.3-1.21.45-1.92.45-.88,0-1.67-.23-2.36-.68s-1.23-1.09-1.62-1.91c-.38-.82-.58-1.76-.58-2.83s.19-2,.58-2.8c.38-.8.92-1.42,1.61-1.86.69-.43,1.48-.65,2.37-.65.7,0,1.33.15,1.9.44.57.29,1,.71,1.31,1.24v-4.64c0-.42.14-.76.42-1.01.28-.25.65-.38,1.11-.38.49,0,.89.13,1.19.4ZM92.45,537.55c.4-.51.6-1.24.6-2.19s-.2-1.68-.6-2.18-.97-.76-1.71-.76-1.32.25-1.72.75-.61,1.21-.61,2.15.2,1.69.61,2.22.98.79,1.72.79,1.31-.26,1.71-.77Z"/>
          <path class="cls-11" d="M112.5,531.1c.73.73,1.09,1.86,1.09,3.37v4.75c0,.46-.13.82-.4,1.08-.27.26-.64.39-1.11.39-.45,0-.81-.14-1.08-.41s-.41-.62-.41-1.06v-.15c-.21.52-.56.92-1.05,1.22-.49.29-1.06.44-1.72.44-.7,0-1.33-.14-1.9-.42-.57-.28-1.02-.67-1.34-1.18-.33-.5-.49-1.06-.49-1.68,0-.76.19-1.35.58-1.79.38-.43,1-.75,1.86-.94.85-.2,2.02-.29,3.51-.29h.55v-.38c0-.59-.13-1.01-.39-1.28-.26-.27-.69-.4-1.29-.4s-1.47.21-2.6.63c-.32.15-.6.23-.82.23-.31,0-.55-.11-.73-.33-.18-.22-.27-.5-.27-.85,0-.28.06-.51.19-.69.13-.18.33-.35.61-.5.49-.27,1.09-.48,1.8-.63.71-.15,1.4-.23,2.09-.23,1.51,0,2.63.37,3.36,1.1ZM110,537.93c.38-.41.57-.95.57-1.61v-.36h-.36c-1.13,0-1.93.09-2.38.27-.46.18-.68.51-.68.99,0,.39.13.71.39.96.26.25.58.37.98.37.62,0,1.11-.21,1.49-.62Z"/>
          <path class="cls-11" d="M125.18,531.08c.6.72.9,1.81.9,3.27v4.85c0,.46-.14.83-.43,1.09s-.68.4-1.17.4-.88-.13-1.16-.4c-.28-.27-.42-.63-.42-1.09v-4.7c0-.7-.13-1.21-.39-1.53-.26-.32-.66-.48-1.21-.48-.66,0-1.19.21-1.59.63s-.6.98-.6,1.68v4.41c0,.46-.14.83-.42,1.09s-.67.4-1.16.4-.88-.13-1.17-.4c-.29-.27-.43-.63-.43-1.09v-7.71c0-.43.15-.79.45-1.05s.69-.4,1.17-.4c.43,0,.79.13,1.06.39.27.26.41.59.41,1v.29c.36-.56.84-.99,1.42-1.28.58-.29,1.24-.44,1.96-.44,1.23,0,2.15.36,2.75,1.08Z"/>
          <path class="cls-11" d="M134.96,540.16c-.27-.27-.4-.64-.4-1.13v-11.74c0-.49.13-.87.4-1.13.27-.27.64-.4,1.13-.4h7.43c1.04,0,1.55.42,1.55,1.26s-.52,1.28-1.55,1.28h-5.77v3.47h5.35c1.04,0,1.55.43,1.55,1.28s-.52,1.26-1.55,1.26h-5.35v3.72h5.77c1.04,0,1.55.43,1.55,1.28s-.52,1.26-1.55,1.26h-7.43c-.49,0-.87-.13-1.13-.4Z"/>
          <path class="cls-11" d="M162.05,531.02c.6.68.9,1.79.9,3.33v4.85c0,.49-.15.86-.44,1.11-.29.25-.67.38-1.13.38s-.83-.13-1.13-.38-.46-.62-.46-1.11v-4.89c0-.67-.12-1.14-.35-1.42-.23-.27-.58-.41-1.06-.41-.59,0-1.06.2-1.41.61-.35.41-.52.97-.52,1.7v4.41c0,.49-.15.86-.44,1.11s-.67.38-1.13.38-.83-.13-1.13-.38c-.31-.25-.46-.62-.46-1.11v-4.89c0-.67-.12-1.14-.35-1.42-.23-.27-.58-.41-1.06-.41-.59,0-1.06.2-1.41.61s-.52.97-.52,1.7v4.41c0,.49-.15.86-.45,1.11s-.68.38-1.12.38-.83-.13-1.13-.38c-.31-.25-.46-.62-.46-1.11v-7.71c0-.46.16-.82.47-1.07.32-.25.7-.38,1.14-.38.42,0,.77.12,1.05.37.28.25.42.58.42,1.02v.21c.34-.53.77-.94,1.31-1.22.54-.28,1.15-.42,1.84-.42.74,0,1.37.15,1.88.45.51.3.91.79,1.19,1.46.32-.59.78-1.05,1.38-1.4.59-.34,1.27-.52,2.03-.52,1.12,0,1.98.34,2.58,1.02Z"/>
          <path class="cls-11" d="M173.35,531.1c.73.73,1.09,1.86,1.09,3.37v4.75c0,.46-.13.82-.4,1.08-.27.26-.64.39-1.11.39-.45,0-.81-.14-1.08-.41-.27-.27-.41-.62-.41-1.06v-.15c-.21.52-.56.92-1.05,1.22-.49.29-1.06.44-1.72.44-.7,0-1.33-.14-1.9-.42s-1.02-.67-1.34-1.18c-.33-.5-.49-1.06-.49-1.68,0-.76.19-1.35.58-1.79.38-.43,1-.75,1.86-.94.85-.2,2.02-.29,3.51-.29h.55v-.38c0-.59-.13-1.01-.39-1.28-.26-.27-.69-.4-1.29-.4s-1.47.21-2.6.63c-.32.15-.59.23-.82.23-.31,0-.55-.11-.74-.33-.18-.22-.27-.5-.27-.85,0-.28.06-.51.19-.69s.33-.35.61-.5c.49-.27,1.09-.48,1.79-.63.71-.15,1.4-.23,2.09-.23,1.51,0,2.63.37,3.36,1.1ZM170.85,537.93c.38-.41.57-.95.57-1.61v-.36h-.36c-1.13,0-1.93.09-2.38.27-.46.18-.68.51-.68.99,0,.39.13.71.39.96.26.25.58.37.98.37.62,0,1.11-.21,1.49-.62Z"/>
          <path class="cls-11" d="M177.09,527.93c-.32-.29-.48-.67-.48-1.17s.16-.88.48-1.16c.32-.28.76-.42,1.32-.42s.98.14,1.31.43c.33.29.49.67.49,1.14s-.16.88-.48,1.17c-.32.29-.76.43-1.32.43s-1-.14-1.32-.43ZM177.27,540.31c-.3-.25-.45-.62-.45-1.11v-7.67c0-.49.15-.86.46-1.11.31-.25.69-.38,1.13-.38s.82.12,1.12.38.45.62.45,1.11v7.67c0,.49-.15.86-.45,1.11s-.68.38-1.12.38-.84-.13-1.14-.38Z"/>
          <path class="cls-11" d="M182.88,540.31c-.3-.25-.45-.62-.45-1.11v-12.05c0-.49.15-.86.45-1.11s.68-.38,1.14-.38.82.13,1.12.38c.3.25.45.62.45,1.11v12.05c0,.49-.15.86-.45,1.11-.3.25-.68.38-1.12.38s-.84-.13-1.14-.38Z"/>
        </g>
        <g id="style_x3D_fill">
          <g id="email">
            <path id="Subtract" class="cls-5" d="M99.48,443.17c-5.66,0-10.78,1.41-14.49,4.86-3.75,3.48-5.66,8.65-5.66,15.29v24.53c0,6.63,1.91,11.8,5.66,15.29,3.71,3.45,8.83,4.86,14.49,4.86h35.05c5.66,0,10.78-1.41,14.49-4.86,3.75-3.48,5.66-8.65,5.66-15.29v-24.53c0-6.63-1.91-11.8-5.66-15.29-3.71-3.45-8.83-4.86-14.49-4.86h-35.05ZM142.33,462.84c1.15-.89,1.36-2.54.47-3.69-.89-1.15-2.54-1.36-3.69-.47l-19.44,15.02c-1.58,1.22-3.78,1.22-5.36,0l-19.44-15.02c-1.15-.89-2.8-.68-3.69.47-.89,1.15-.68,2.8.47,3.69l19.44,15.02c3.47,2.68,8.31,2.68,11.79,0l19.44-15.02Z"/>
          </g>
        </g>
      </g>
      <g>
        <g>
          <path class="cls-11" d="M84.25,258.84c-.48.53-.7,1.25-.62,1.96l6.54,54.98c.15,1.27,1.22,2.21,2.49,2.21h25.11c-.13-.36-.25-.73-.35-1.1-.36-1.24-.61-2.55-.74-3.91-.08-.78-.12-1.58-.12-2.4,0-7.21,4.38-13.78,8.29-19.52.29-.44.59-.86.89-1.28l3.53-28.97c.08-.71-.14-1.43-.61-1.97-.48-.54-1.16-.85-1.87-.85h-40.65c-.72,0-1.4.31-1.87.84ZM123.64,263.99l-2.07,16.94c-.56.22-1.14.39-1.79.55-3.49.8-7.11.19-10.53-.64-4.77-1.15-9.59-2.78-14.56-2.26l3.5,29.48c.1.85-.5,1.61-1.35,1.71l-1.15.14c-.85.1-1.61-.5-1.71-1.35l-3.45-29s0,0-.02,0l-1.85-15.56h34.97Z"/>
          <path class="cls-12" d="M125.09,295.36c-3.87,6.12-7.61,13.83-5.48,21.31,1.93,6.77,8.06,10.98,15.01,10.98,8.71,0,15.76-6.03,15.76-16.6s-15.76-28.5-15.76-28.5c0,0-5.13,5.83-9.53,12.8Z"/>
        </g>
        <g>
          <path class="cls-11" d="M57.97,360.6c-.27-.27-.4-.64-.4-1.13v-11.74c0-.49.13-.87.4-1.13.27-.27.64-.4,1.13-.4h4.22c1.61,0,3,.29,4.16.88,1.16.59,2.05,1.44,2.67,2.54s.92,2.43.92,3.97-.3,2.87-.91,3.98c-.61,1.11-1.49,1.96-2.66,2.55-1.16.59-2.56.88-4.18.88h-4.22c-.49,0-.87-.13-1.13-.4ZM63.09,358.35c3.15,0,4.72-1.59,4.72-4.77s-1.57-4.75-4.72-4.75h-2.25v9.51h2.25Z"/>
          <path class="cls-11" d="M80.49,350.76c.24.22.37.54.37.98,0,.46-.11.81-.34,1.03-.22.22-.62.36-1.2.42l-.63.06c-.77.08-1.33.34-1.67.76s-.51.96-.51,1.62v4.01c0,.49-.15.86-.45,1.11-.3.25-.68.38-1.12.38s-.84-.13-1.14-.38c-.3-.25-.45-.62-.45-1.11v-7.71c0-.46.15-.82.46-1.07.31-.25.68-.38,1.11-.38s.77.12,1.05.37c.28.25.42.58.42,1.02v.57c.25-.6.63-1.06,1.14-1.39.51-.32,1.07-.5,1.67-.55l.29-.02c.42-.03.75.07,1,.28Z"/>
          <path class="cls-11" d="M82.04,348.37c-.32-.29-.48-.68-.48-1.17s.16-.88.48-1.16c.32-.28.76-.42,1.32-.42s.98.14,1.31.43c.33.29.49.67.49,1.14s-.16.88-.48,1.17c-.32.29-.76.43-1.32.43s-1-.14-1.32-.43ZM82.21,360.75c-.3-.25-.45-.62-.45-1.11v-7.66c0-.49.15-.86.46-1.11.31-.25.69-.38,1.13-.38s.82.13,1.12.38c.3.25.45.62.45,1.11v7.66c0,.49-.15.86-.45,1.11-.3.25-.68.38-1.12.38s-.84-.13-1.14-.38Z"/>
          <path class="cls-11" d="M96.59,351.52c.6.72.9,1.81.9,3.27v4.85c0,.46-.14.83-.43,1.09-.29.27-.68.4-1.17.4s-.88-.13-1.16-.4c-.28-.27-.42-.63-.42-1.09v-4.7c0-.7-.13-1.21-.39-1.53-.26-.32-.66-.48-1.21-.48-.66,0-1.19.21-1.59.63-.4.42-.6.98-.6,1.68v4.41c0,.46-.14.83-.42,1.09-.28.27-.67.4-1.16.4s-.88-.13-1.17-.4c-.29-.27-.43-.63-.43-1.09v-7.71c0-.43.15-.78.45-1.05.3-.27.69-.4,1.17-.4.43,0,.79.13,1.06.39s.41.59.41,1v.29c.36-.56.84-.99,1.42-1.28.58-.29,1.24-.44,1.96-.44,1.23,0,2.15.36,2.75,1.08Z"/>
          <path class="cls-11" d="M110.07,359.59c0,.39-.14.74-.43,1.05-.29.31-.62.46-1,.46s-.7-.15-1.01-.44l-4.6-4.26v3.21c0,.49-.15.86-.45,1.11-.3.25-.68.38-1.12.38s-.84-.13-1.14-.38c-.3-.25-.45-.62-.45-1.11v-12.03c0-.49.15-.86.45-1.11.3-.25.68-.38,1.14-.38s.82.13,1.12.38c.3.25.45.62.45,1.11v7.52l4.2-4.14c.31-.31.65-.46,1.03-.46s.73.14,1.03.43.44.63.44,1.02c0,.36-.16.71-.48,1.03l-2.79,2.67,3.13,2.9c.32.31.48.66.48,1.05Z"/>
          <path class="cls-11" d="M136.62,346.31c.26-.17.55-.26.87-.26.41,0,.75.13,1.04.38.29.25.43.6.43,1.03,0,.21-.04.44-.13.69l-4.37,11.95c-.13.34-.35.6-.66.79-.31.19-.66.28-1.04.28s-.72-.09-1.03-.28c-.31-.19-.52-.45-.65-.79l-3.13-8.84-3.21,8.84c-.13.34-.34.6-.65.79-.31.19-.65.28-1.03.28s-.7-.09-1.02-.28c-.31-.19-.54-.45-.66-.79l-4.37-11.95c-.08-.24-.13-.46-.13-.67,0-.43.15-.78.46-1.04.31-.26.67-.39,1.09-.39.34,0,.64.09.91.26.27.18.47.43.6.77l3.23,9.3,3.36-9.26c.13-.34.33-.6.6-.78.27-.18.56-.27.87-.27s.62.09.88.27c.27.18.46.45.59.8l3.21,9.41,3.34-9.47c.13-.34.32-.59.58-.77Z"/>
          <path class="cls-11" d="M147.6,351.54c.73.73,1.09,1.86,1.09,3.37v4.75c0,.46-.13.82-.4,1.08-.27.26-.64.39-1.11.39-.45,0-.81-.14-1.08-.41-.27-.27-.41-.63-.41-1.06v-.15c-.21.52-.56.92-1.05,1.22s-1.06.44-1.72.44c-.7,0-1.33-.14-1.9-.42-.57-.28-1.02-.67-1.34-1.18-.33-.5-.49-1.06-.49-1.68,0-.76.19-1.35.58-1.79.38-.43,1-.75,1.86-.94.85-.2,2.02-.29,3.51-.29h.55v-.38c0-.59-.13-1.02-.39-1.28-.26-.27-.69-.4-1.29-.4s-1.47.21-2.6.63c-.32.15-.6.23-.82.23-.31,0-.55-.11-.73-.33-.18-.22-.27-.5-.27-.85,0-.28.06-.51.19-.69.13-.18.33-.35.61-.5.49-.27,1.09-.48,1.8-.63.71-.15,1.4-.23,2.09-.23,1.51,0,2.63.37,3.36,1.1ZM145.1,358.36c.38-.41.57-.95.57-1.61v-.36h-.36c-1.13,0-1.93.09-2.38.27-.46.18-.68.51-.68.99,0,.39.13.71.39.96.26.25.58.37.98.37.62,0,1.11-.21,1.49-.62Z"/>
          <path class="cls-11" d="M157.72,359.13c.2.18.29.45.29.8,0,.41-.16.71-.48.92-.32.21-.78.29-1.39.25l-.59-.04c-2.45-.2-3.67-1.48-3.67-3.84v-4.16h-.84c-.46,0-.81-.1-1.05-.3-.24-.2-.36-.49-.36-.87s.12-.69.36-.89.59-.3,1.05-.3h.84v-1.64c0-.46.14-.83.43-1.09.29-.27.68-.4,1.17-.4s.88.13,1.16.4c.28.27.42.63.42,1.09v1.64h1.47c.95,0,1.43.4,1.43,1.2,0,.38-.12.67-.36.87-.24.2-.6.3-1.07.3h-1.47v4.39c0,.42.1.74.29.96.2.22.48.34.86.37l.59.04c.42.03.73.13.92.31Z"/>
          <path class="cls-11" d="M168.14,358.27c.18.22.26.51.26.86,0,.24-.07.46-.21.66-.14.2-.34.37-.59.51-.48.25-1.03.46-1.66.62-.63.16-1.21.24-1.74.24-1.12,0-2.1-.22-2.93-.65-.83-.43-1.47-1.05-1.92-1.86-.45-.81-.67-1.75-.67-2.85s.22-1.98.65-2.79c.43-.81,1.04-1.45,1.81-1.9s1.65-.68,2.62-.68,1.76.21,2.47.62c.71.41,1.26,1,1.65,1.76.39.76.59,1.66.59,2.68,0,.31-.07.54-.22.7s-.35.24-.62.24h-5.88c.1.83.35,1.42.76,1.8.41.37.99.56,1.74.56.41,0,.77-.05,1.09-.15.32-.1.68-.23,1.07-.4.2-.08.38-.16.57-.22s.34-.09.48-.09c.28,0,.51.11.68.34ZM162.4,353.2c-.36.38-.58.94-.65,1.67h4.05c-.04-.74-.23-1.3-.56-1.68s-.79-.57-1.4-.57-1.08.19-1.45.58Z"/>
          <path class="cls-11" d="M177.53,350.76c.24.22.37.54.37.98,0,.46-.11.81-.34,1.03-.22.22-.62.36-1.2.42l-.63.06c-.77.08-1.33.34-1.67.76s-.51.96-.51,1.62v4.01c0,.49-.15.86-.45,1.11-.3.25-.68.38-1.12.38s-.84-.13-1.14-.38c-.3-.25-.45-.62-.45-1.11v-7.71c0-.46.15-.82.46-1.07.31-.25.68-.38,1.11-.38s.77.12,1.05.37c.28.25.42.58.42,1.02v.57c.25-.6.63-1.06,1.14-1.39.51-.32,1.07-.5,1.67-.55l.29-.02c.42-.03.75.07,1,.28Z"/>
        </g>
      </g>
      <g>
        <g>
          <path class="cls-11" d="M119.87,678.28l32.55-13.02v21.65c-1.93-1.24-4.23-1.96-6.7-1.96-6.87,0-12.45,5.57-12.45,12.45s5.57,12.45,12.45,12.45,12.45-5.57,12.45-12.45h0v-36.59c0-4.38,0-8.05-.31-10.97-.04-.41-.09-.82-.15-1.21-.3-2-.82-3.86-1.83-5.42-.51-.78-1.13-1.48-1.92-2.08-.15-.11-.3-.22-.46-.33l-.03-.02c-2.71-1.8-5.75-1.67-8.89-.87-3.03.77-6.79,2.35-11.41,4.28l-8.02,3.36c-2.16.9-3.99,1.67-5.43,2.46-1.53.84-2.85,1.84-3.83,3.33-.99,1.48-1.4,3.08-1.59,4.82-.18,1.63-.18,3.62-.18,5.96v30.45c-1.93-1.24-4.23-1.96-6.7-1.96-6.87,0-12.45,5.57-12.45,12.45s5.57,12.45,12.45,12.45,12.45-5.57,12.45-12.45h0v-26.78Z"/>
          <path class="cls-13" d="M100.72,638.04c0-1.59-1.29-2.87-2.87-2.87s-2.87,1.29-2.87,2.87v22.06c-1.93-1.24-4.23-1.96-6.7-1.96-6.87,0-12.45,5.57-12.45,12.45s5.57,12.45,12.45,12.45,12.45-5.57,12.45-12.45v-21.04c2.67,1.93,5.86,2.85,8.62,2.85,1.59,0,2.87-1.29,2.87-2.87s-1.29-2.87-2.87-2.87c-1.74,0-3.96-.67-5.7-2.11-1.66-1.37-2.92-3.45-2.92-6.5Z"/>
        </g>
        <g>
          <path class="cls-11" d="M44.96,750.17c-.27-.27-.4-.64-.4-1.13v-11.76c0-.49.15-.88.44-1.18s.69-.44,1.2-.44.9.15,1.2.44.44.69.44,1.18v10.62h5.38c1.02,0,1.53.45,1.53,1.34s-.51,1.32-1.53,1.32h-7.12c-.49,0-.87-.13-1.13-.4Z"/>
          <path class="cls-11" d="M56.41,737.93c-.32-.29-.48-.67-.48-1.17s.16-.88.48-1.16c.32-.28.76-.42,1.32-.42s.98.14,1.31.43c.33.29.49.67.49,1.14s-.16.88-.48,1.17c-.32.29-.76.43-1.32.43s-1-.14-1.32-.43ZM56.58,750.31c-.3-.25-.45-.62-.45-1.11v-7.67c0-.49.15-.86.46-1.11.31-.25.69-.38,1.13-.38s.82.13,1.12.38.45.62.45,1.11v7.67c0,.49-.15.86-.45,1.11s-.68.38-1.12.38-.84-.12-1.14-.38Z"/>
          <path class="cls-11" d="M63.42,750.52c-.63-.14-1.18-.36-1.66-.67-.21-.12-.37-.29-.48-.5-.11-.21-.17-.45-.17-.71,0-.32.09-.59.27-.81.18-.22.41-.33.67-.33.18,0,.36.03.55.09.18.06.37.14.57.22.39.18.78.33,1.16.43.38.1.85.16,1.41.16.49,0,.87-.08,1.14-.23.27-.15.41-.36.41-.63,0-.2-.06-.35-.18-.47-.12-.12-.34-.23-.66-.33-.32-.1-.83-.22-1.53-.36-1.25-.24-2.14-.59-2.69-1.07-.55-.48-.82-1.14-.82-2,0-.63.19-1.2.58-1.7.38-.5.91-.9,1.59-1.19s1.43-.43,2.27-.43c.6,0,1.19.08,1.76.23.57.15,1.08.37,1.53.65.43.27.65.66.65,1.18,0,.34-.09.62-.27.84-.18.22-.41.34-.67.34-.32,0-.71-.12-1.15-.38-.35-.18-.67-.32-.96-.41-.29-.09-.63-.14-1.02-.14-.43,0-.78.08-1.03.24-.25.16-.38.38-.38.66s.15.52.44.67c.29.15.86.31,1.7.46.94.18,1.67.4,2.21.66.53.26.92.58,1.16.98.24.39.36.89.36,1.49,0,.99-.41,1.79-1.23,2.37s-1.91.88-3.29.88c-.85,0-1.6-.07-2.23-.21Z"/>
          <path class="cls-11" d="M78.52,748.7c.2.18.29.45.29.8,0,.41-.16.71-.48.92s-.78.29-1.39.25l-.59-.04c-2.45-.2-3.67-1.48-3.67-3.84v-4.16h-.84c-.46,0-.81-.1-1.05-.3-.24-.2-.36-.49-.36-.87s.12-.69.36-.89c.24-.2.59-.3,1.05-.3h.84v-1.64c0-.46.14-.83.43-1.09s.68-.4,1.17-.4.88.13,1.16.4c.28.27.42.63.42,1.09v1.64h1.47c.95,0,1.43.4,1.43,1.2,0,.38-.12.67-.36.87-.24.2-.6.3-1.07.3h-1.47v4.39c0,.42.1.74.29.96.2.22.48.34.86.37l.59.04c.42.03.73.13.92.32Z"/>
          <path class="cls-11" d="M88.94,747.83c.18.22.26.51.26.86,0,.24-.07.46-.21.66-.14.2-.34.37-.59.51-.48.25-1.03.46-1.66.62-.63.16-1.21.24-1.74.24-1.12,0-2.1-.22-2.93-.65-.83-.43-1.47-1.05-1.92-1.86s-.67-1.75-.67-2.85.22-1.98.65-2.79c.43-.81,1.04-1.45,1.81-1.9.77-.46,1.64-.68,2.62-.68s1.76.21,2.47.62c.71.41,1.26,1,1.65,1.76.39.76.59,1.66.59,2.68,0,.31-.07.54-.22.7-.15.16-.35.24-.62.24h-5.88c.1.83.35,1.42.76,1.8.41.37.99.56,1.74.56.41,0,.77-.05,1.09-.15.32-.1.68-.23,1.07-.4.2-.08.38-.16.57-.22.18-.06.34-.09.48-.09.28,0,.51.11.68.34ZM83.2,742.76c-.36.38-.58.94-.65,1.67h4.05c-.04-.74-.23-1.3-.56-1.68s-.79-.57-1.4-.57-1.08.19-1.45.58Z"/>
          <path class="cls-11" d="M100.4,741.08c.6.72.9,1.81.9,3.27v4.85c0,.46-.14.83-.43,1.09-.29.27-.68.4-1.17.4s-.88-.13-1.16-.4-.42-.63-.42-1.09v-4.7c0-.7-.13-1.21-.39-1.53-.26-.32-.66-.48-1.21-.48-.66,0-1.19.21-1.59.63-.4.42-.6.98-.6,1.68v4.41c0,.46-.14.83-.42,1.09-.28.27-.67.4-1.16.4s-.88-.13-1.17-.4-.43-.63-.43-1.09v-7.71c0-.43.15-.78.45-1.05.3-.27.69-.4,1.17-.4.43,0,.79.13,1.06.39.27.26.41.59.41,1v.29c.36-.56.84-.99,1.42-1.28.58-.29,1.24-.44,1.96-.44,1.23,0,2.15.36,2.75,1.08Z"/>
          <path class="cls-11" d="M116.19,748.7c.2.18.29.45.29.8,0,.41-.16.71-.48.92-.32.21-.78.29-1.39.25l-.59-.04c-2.45-.2-3.67-1.48-3.67-3.84v-4.16h-.84c-.46,0-.81-.1-1.05-.3-.24-.2-.36-.49-.36-.87s.12-.69.36-.89c.24-.2.59-.3,1.05-.3h.84v-1.64c0-.46.14-.83.43-1.09s.67-.4,1.17-.4.88.13,1.16.4.42.63.42,1.09v1.64h1.47c.95,0,1.43.4,1.43,1.2,0,.38-.12.67-.36.87-.24.2-.59.3-1.07.3h-1.47v4.39c0,.42.1.74.29.96s.48.34.86.37l.59.04c.42.03.73.13.92.32Z"/>
          <path class="cls-11" d="M119.74,750.07c-.83-.44-1.46-1.06-1.91-1.87-.45-.8-.67-1.75-.67-2.85s.22-2.04.67-2.85c.45-.8,1.08-1.42,1.91-1.86s1.79-.65,2.88-.65,2.05.22,2.88.65,1.46,1.05,1.91,1.86c.45.81.67,1.75.67,2.85s-.22,2.04-.67,2.85c-.45.81-1.08,1.43-1.91,1.87s-1.78.66-2.88.66-2.05-.22-2.88-.66ZM124.93,745.36c0-.99-.2-1.74-.6-2.23-.4-.49-.97-.74-1.71-.74-1.54,0-2.31.99-2.31,2.96s.77,2.96,2.31,2.96,2.31-.99,2.31-2.96Z"/>
          <path class="cls-11" d="M150.39,736.11c.29.3.43.69.43,1.17v11.93c0,.46-.13.83-.4,1.09s-.62.4-1.05.4-.76-.13-1.03-.4c-.27-.27-.4-.63-.4-1.09v-7.41l-2.98,5.61c-.2.37-.41.63-.64.8-.23.17-.51.25-.83.25s-.58-.08-.82-.25-.46-.43-.65-.8l-2.98-5.5v7.31c0,.45-.13.81-.4,1.08-.27.27-.62.41-1.05.41s-.76-.13-1.03-.4c-.27-.27-.4-.63-.4-1.09v-11.93c0-.48.14-.87.43-1.17s.66-.45,1.12-.45c.67,0,1.18.36,1.53,1.07l4.26,8.09,4.24-8.09c.38-.71.88-1.07,1.51-1.07.46,0,.84.15,1.12.45Z"/>
          <path class="cls-11" d="M163.05,740.44c.29.27.43.63.43,1.09v7.71c0,.44-.15.79-.45,1.05-.3.27-.69.4-1.17.4-.45,0-.8-.12-1.07-.38-.27-.25-.4-.59-.4-1.01v-.21c-.32.53-.75.94-1.27,1.22-.53.28-1.12.42-1.77.42-1.3,0-2.27-.36-2.91-1.08-.64-.72-.96-1.81-.96-3.27v-4.85c0-.46.14-.83.43-1.09.29-.27.67-.4,1.17-.4s.88.13,1.16.4c.28.27.42.63.42,1.09v4.91c0,.62.13,1.07.39,1.37.26.29.65.44,1.19.44.62,0,1.12-.21,1.5-.63.39-.42.58-.97.58-1.66v-4.43c0-.46.14-.83.42-1.09.28-.27.67-.4,1.16-.4s.88.13,1.17.4Z"/>
          <path class="cls-11" d="M167.6,750.52c-.63-.14-1.18-.36-1.66-.67-.21-.12-.37-.29-.48-.5-.11-.21-.17-.45-.17-.71,0-.32.09-.59.27-.81.18-.22.41-.33.67-.33.18,0,.36.03.55.09.18.06.37.14.57.22.39.18.78.33,1.16.43.38.1.85.16,1.41.16.49,0,.87-.08,1.14-.23.27-.15.41-.36.41-.63,0-.2-.06-.35-.18-.47-.12-.12-.34-.23-.66-.33-.32-.1-.83-.22-1.53-.36-1.25-.24-2.14-.59-2.69-1.07-.55-.48-.82-1.14-.82-2,0-.63.19-1.2.58-1.7.38-.5.91-.9,1.59-1.19s1.43-.43,2.27-.43c.6,0,1.19.08,1.76.23.57.15,1.08.37,1.53.65.43.27.65.66.65,1.18,0,.34-.09.62-.27.84-.18.22-.41.34-.67.34-.32,0-.71-.12-1.15-.38-.35-.18-.67-.32-.96-.41-.29-.09-.63-.14-1.02-.14-.43,0-.78.08-1.03.24-.25.16-.38.38-.38.66s.15.52.44.67c.29.15.86.31,1.7.46.94.18,1.67.4,2.21.66.53.26.92.58,1.16.98.24.39.36.89.36,1.49,0,.99-.41,1.79-1.23,2.37s-1.91.88-3.29.88c-.85,0-1.6-.07-2.23-.21Z"/>
          <path class="cls-11" d="M176.42,737.93c-.32-.29-.48-.67-.48-1.17s.16-.88.48-1.16c.32-.28.76-.42,1.32-.42s.98.14,1.31.43c.33.29.49.67.49,1.14s-.16.88-.48,1.17c-.32.29-.76.43-1.32.43s-1-.14-1.32-.43ZM176.6,750.31c-.3-.25-.45-.62-.45-1.11v-7.67c0-.49.15-.86.46-1.11.31-.25.69-.38,1.13-.38s.82.13,1.12.38.45.62.45,1.11v7.67c0,.49-.15.86-.45,1.11s-.68.38-1.12.38-.84-.12-1.14-.38Z"/>
          <path class="cls-11" d="M183.73,750.08c-.8-.43-1.41-1.05-1.84-1.85-.43-.8-.64-1.74-.64-2.81s.23-2.03.68-2.85c.45-.82,1.09-1.45,1.92-1.9s1.78-.67,2.86-.67c.56,0,1.12.08,1.69.23s1.07.37,1.52.65c.43.27.65.66.65,1.18,0,.37-.08.66-.25.89-.17.23-.39.35-.67.35-.18,0-.35-.03-.51-.09-.16-.06-.38-.16-.64-.28-.29-.15-.56-.27-.79-.36-.23-.08-.49-.12-.79-.12-.78,0-1.38.25-1.8.75s-.62,1.22-.62,2.17.21,1.68.62,2.18,1.01.76,1.8.76c.29,0,.55-.04.78-.12.22-.08.5-.2.82-.37.27-.12.48-.22.63-.28s.32-.09.5-.09c.27,0,.49.12.66.36.17.24.26.54.26.9,0,.52-.22.9-.65,1.15-.45.28-.97.5-1.55.65s-1.2.23-1.85.23c-1.06,0-1.99-.22-2.79-.65Z"/>
        </g>
      </g>
    </g>
    <g>
      <g class="cls-15">
        <rect class="cls-18" x="386.5" y="42" width="233" height="778" rx="82" ry="82"/>
      </g>
      <rect class="cls-18" x="386.5" width="233" height="233" rx="82" ry="82"/>
      <g>
        <g id="Page-1-2" data-name="Page-1">
          <g id="Icon-Set-Filled-2" data-name="Icon-Set-Filled">
            <path id="spoon-2" data-name="spoon" class="cls-6" d="M448.68,50.47c-16.17,9.32-20.64,31.86-9.99,50.34,8.75,15.18,25.08,23.16,39.58,20.32l34.38,59.63c2.66,4.62,8.56,6.2,13.18,3.54h0c4.61-2.67,6.2-8.57,3.54-13.19l-34.38-59.63c9.72-11.13,10.99-29.26,2.24-44.44-10.65-18.48-32.4-25.9-48.57-16.58h0Z"/>
          </g>
        </g>
        <g id="Page-1-3" data-name="Page-1">
          <g id="Icon-Set-Filled-3" data-name="Icon-Set-Filled">
            <path id="spoon-3" data-name="spoon" class="cls-6" d="M564.11,50.8c-16.17-9.32-37.91-1.9-48.57,16.58-8.75,15.18-7.47,33.31,2.24,44.44l-34.38,59.63c-2.66,4.62-1.08,10.52,3.54,13.18h0c4.62,2.66,10.52,1.08,13.18-3.54l34.38-59.63c14.5,2.83,30.83-5.15,39.58-20.32,10.65-18.48,6.18-41.02-9.99-50.34h0Z"/>
          </g>
        </g>
      </g>
      <g>
        <g>
          <path class="cls-1" d="M446.81,749.83c-1.09-.62-1.93-1.5-2.52-2.65-.59-1.15-.88-2.49-.88-4.03s.29-2.88.88-4.02c.59-1.14,1.43-2.02,2.52-2.63s2.37-.92,3.82-.92c1.83,0,3.42.5,4.75,1.51.21.17.36.34.44.5s.13.38.13.63c0,.36-.1.68-.3.93-.2.26-.45.39-.75.39-.2,0-.37-.02-.51-.07-.15-.05-.31-.14-.49-.26-.56-.36-1.08-.63-1.55-.79-.48-.16-.99-.24-1.53-.24-1.34,0-2.36.42-3.03,1.25-.68.83-1.02,2.08-1.02,3.73,0,3.33,1.35,5,4.05,5,.52,0,1.01-.08,1.47-.24s1-.42,1.62-.79c.21-.13.38-.21.53-.26.14-.05.3-.07.48-.07.29,0,.54.13.75.39.2.26.3.57.3.94,0,.25-.04.46-.14.64-.09.17-.24.34-.43.49-1.33,1.01-2.91,1.51-4.75,1.51-1.46,0-2.73-.31-3.82-.92Z"/>
          <path class="cls-1" d="M465.61,741.1c.73.73,1.09,1.86,1.09,3.37v4.75c0,.46-.13.82-.4,1.08-.27.26-.64.39-1.11.39-.45,0-.81-.14-1.08-.41-.27-.27-.41-.63-.41-1.06v-.15c-.21.52-.56.92-1.05,1.22s-1.06.44-1.72.44c-.7,0-1.33-.14-1.9-.42-.57-.28-1.02-.67-1.34-1.18-.33-.5-.49-1.06-.49-1.68,0-.76.19-1.35.58-1.79.38-.43,1-.75,1.86-.94.85-.2,2.02-.29,3.51-.29h.55v-.38c0-.59-.13-1.02-.39-1.28-.26-.27-.69-.4-1.29-.4s-1.47.21-2.6.63c-.32.15-.6.23-.82.23-.31,0-.55-.11-.73-.32-.18-.22-.27-.5-.27-.85,0-.28.06-.51.19-.69.13-.18.33-.35.61-.5.49-.27,1.09-.47,1.8-.63.71-.15,1.4-.23,2.09-.23,1.51,0,2.63.37,3.36,1.1ZM463.11,747.93c.38-.41.57-.95.57-1.61v-.36h-.36c-1.13,0-1.93.09-2.38.27s-.68.51-.68.99c0,.39.13.71.39.96s.58.37.98.37c.62,0,1.11-.21,1.49-.62Z"/>
          <path class="cls-1" d="M469.52,750.31c-.3-.25-.45-.62-.45-1.11v-12.05c0-.49.15-.86.45-1.11.3-.25.68-.38,1.14-.38s.82.12,1.12.38c.3.25.45.62.45,1.11v12.05c0,.49-.15.86-.45,1.11-.3.25-.68.38-1.12.38s-.84-.12-1.14-.38Z"/>
          <path class="cls-1" d="M475.13,750.31c-.3-.25-.45-.62-.45-1.11v-12.05c0-.49.15-.86.45-1.11.3-.25.68-.38,1.14-.38s.82.12,1.12.38c.3.25.45.62.45,1.11v12.05c0,.49-.15.86-.45,1.11s-.68.38-1.12.38-.84-.12-1.14-.38Z"/>
          <path class="cls-1" d="M494.15,741.1c.73.73,1.09,1.86,1.09,3.37v4.75c0,.46-.13.82-.4,1.08-.27.26-.64.39-1.11.39-.45,0-.81-.14-1.08-.41s-.41-.63-.41-1.06v-.15c-.21.52-.56.92-1.05,1.22s-1.06.44-1.72.44c-.7,0-1.33-.14-1.9-.42-.57-.28-1.02-.67-1.34-1.18-.33-.5-.49-1.06-.49-1.68,0-.76.19-1.35.58-1.79.38-.43,1-.75,1.86-.94.85-.2,2.02-.29,3.51-.29h.55v-.38c0-.59-.13-1.02-.39-1.28s-.69-.4-1.29-.4-1.47.21-2.6.63c-.32.15-.59.23-.82.23-.31,0-.55-.11-.74-.32-.18-.22-.27-.5-.27-.85,0-.28.06-.51.19-.69.13-.18.33-.35.61-.5.49-.27,1.09-.47,1.79-.63s1.4-.23,2.09-.23c1.51,0,2.63.37,3.36,1.1ZM491.65,747.93c.38-.41.57-.95.57-1.61v-.36h-.36c-1.13,0-1.93.09-2.38.27s-.68.51-.68.99c0,.39.13.71.39.96.26.25.58.37.98.37.62,0,1.11-.21,1.49-.62Z"/>
          <path class="cls-1" d="M504.17,750.24c-.3-.3-.45-.7-.45-1.19v-11.76c0-.49.13-.87.4-1.13.27-.27.64-.4,1.13-.4h7.22c.53,0,.92.1,1.18.32.25.21.38.54.38.99s-.13.76-.38.97c-.25.21-.64.31-1.18.31h-5.52v3.4h5.1c.53,0,.92.11,1.18.31.25.21.38.54.38.99s-.13.76-.38.97c-.25.21-.64.32-1.18.32h-5.1v4.72c0,.5-.14.9-.43,1.2-.29.29-.68.44-1.17.44s-.89-.15-1.19-.45Z"/>
          <path class="cls-1" d="M522.42,740.33c.25.22.37.54.37.98,0,.46-.11.81-.34,1.03-.22.22-.62.36-1.2.42l-.63.06c-.77.08-1.33.34-1.67.76-.34.42-.51.96-.51,1.62v4.01c0,.49-.15.86-.45,1.11-.3.25-.68.38-1.12.38s-.84-.12-1.14-.38-.45-.62-.45-1.11v-7.71c0-.46.15-.82.46-1.07s.68-.38,1.11-.38.77.12,1.05.37c.28.25.42.58.42,1.02v.57c.25-.6.63-1.06,1.14-1.39.51-.32,1.07-.5,1.67-.54l.29-.02c.42-.03.75.07,1,.28Z"/>
          <path class="cls-1" d="M523.96,737.93c-.32-.29-.48-.67-.48-1.17s.16-.88.48-1.16c.32-.28.76-.42,1.32-.42s.98.14,1.31.43.49.67.49,1.14-.16.88-.48,1.17-.76.43-1.32.43-1-.14-1.32-.43ZM524.14,750.31c-.3-.25-.45-.62-.45-1.11v-7.67c0-.49.15-.86.46-1.11s.69-.38,1.13-.38.82.13,1.12.38c.3.25.45.62.45,1.11v7.67c0,.49-.15.86-.45,1.11-.3.25-.68.38-1.12.38s-.84-.12-1.14-.38Z"/>
          <path class="cls-1" d="M538.25,747.83c.17.22.26.51.26.86,0,.24-.07.46-.21.66-.14.2-.34.37-.59.51-.48.25-1.03.46-1.66.62-.63.16-1.21.24-1.74.24-1.12,0-2.1-.22-2.93-.65s-1.47-1.05-1.92-1.86c-.45-.8-.67-1.75-.67-2.85s.22-1.98.65-2.79c.43-.81,1.04-1.45,1.81-1.9.77-.46,1.65-.68,2.62-.68s1.76.21,2.47.62c.71.41,1.26,1,1.65,1.76.39.76.59,1.66.59,2.68,0,.31-.07.54-.22.7-.15.16-.35.24-.62.24h-5.88c.1.83.35,1.42.76,1.8s.99.56,1.74.56c.41,0,.77-.05,1.09-.15.32-.1.68-.23,1.07-.4.2-.08.38-.16.57-.22.18-.06.34-.09.48-.09.28,0,.51.11.68.34ZM532.51,742.76c-.36.38-.58.94-.65,1.67h4.05c-.04-.74-.23-1.3-.56-1.68s-.79-.57-1.4-.57-1.08.19-1.45.58Z"/>
          <path class="cls-1" d="M549.71,741.08c.6.72.9,1.81.9,3.27v4.85c0,.46-.14.83-.43,1.09s-.68.4-1.17.4-.88-.13-1.16-.4c-.28-.27-.42-.63-.42-1.09v-4.7c0-.7-.13-1.21-.39-1.53-.26-.32-.66-.48-1.21-.48-.66,0-1.19.21-1.59.63s-.6.98-.6,1.68v4.41c0,.46-.14.83-.42,1.09s-.67.4-1.16.4-.88-.13-1.17-.4c-.29-.27-.43-.63-.43-1.09v-7.71c0-.43.15-.78.45-1.05.3-.27.69-.4,1.17-.4.43,0,.79.13,1.06.39.27.26.41.59.41,1v.29c.36-.56.84-.99,1.42-1.28.58-.29,1.24-.44,1.96-.44,1.23,0,2.15.36,2.75,1.08Z"/>
          <path class="cls-1" d="M562.97,736.05c.3.27.45.62.45,1.05v12.1c0,.45-.14.81-.43,1.08s-.67.41-1.14.41-.86-.14-1.14-.41-.43-.63-.43-1.08v-.17c-.31.53-.75.95-1.31,1.25-.57.3-1.21.45-1.92.45-.88,0-1.67-.23-2.36-.68-.69-.45-1.23-1.09-1.62-1.91-.39-.82-.58-1.76-.58-2.82s.19-2,.58-2.8c.38-.8.92-1.42,1.61-1.86.69-.43,1.48-.65,2.37-.65.7,0,1.33.15,1.9.44.57.29,1,.71,1.31,1.24v-4.64c0-.42.14-.76.42-1.01.28-.25.65-.38,1.11-.38.49,0,.88.13,1.19.4ZM559.67,747.55c.4-.51.6-1.24.6-2.2s-.2-1.68-.6-2.18c-.4-.5-.97-.76-1.71-.76s-1.32.25-1.72.75c-.41.5-.61,1.21-.61,2.15s.2,1.69.61,2.21c.41.53.98.79,1.72.79s1.31-.25,1.71-.77Z"/>
        </g>
        <g>
          <path class="cls-2" d="M512.88,692.29l-1.84,1.94s-4.38,4.61-16.34-7.98c-11.96-12.59-7.58-17.2-7.58-17.2l1.16-1.22c2.86-3.01,3.13-7.84.63-11.37l-5.1-7.22c-3.09-4.37-9.05-4.94-12.59-1.22l-6.35,6.69c-1.75,1.85-2.93,4.24-2.79,6.9.36,6.8,3.27,21.42,19.47,38.48,17.18,18.09,33.31,18.81,39.9,18.16,2.09-.21,3.9-1.33,5.36-2.87l5.75-6.05c3.88-4.08,2.79-11.09-2.18-13.94l-7.73-4.45c-3.26-1.88-7.23-1.33-9.78,1.36Z"/>
          <path class="cls-3" d="M522.77,677.93c11.17,0,20.23-9.06,20.23-20.23s-9.06-20.23-20.23-20.23-20.23,9.06-20.23,20.23c0,3.24.76,6.29,2.11,9.01.36.72.48,1.54.27,2.32l-1.2,4.5c-.52,1.96,1.27,3.74,3.22,3.22l4.5-1.2c.78-.21,1.6-.09,2.32.27,2.71,1.35,5.77,2.11,9.01,2.11Z"/>
        </g>
      </g>
      <g>
        <g>
          <path class="cls-1" d="M419.04,547.25c-.29-.29-.44-.69-.44-1.2v-11.76c0-.49.13-.87.4-1.13.27-.27.64-.4,1.13-.4h5.27c1.61,0,2.86.41,3.76,1.22.9.81,1.34,1.95,1.34,3.4s-.45,2.59-1.34,3.4c-.9.81-2.15,1.22-3.76,1.22h-3.53v4.05c0,.5-.15.9-.44,1.2-.29.29-.69.44-1.2.44s-.9-.15-1.2-.44ZM424.98,539.52c1.64,0,2.46-.71,2.46-2.12s-.82-2.14-2.46-2.14h-3.11v4.26h3.11Z"/>
          <path class="cls-1" d="M439.31,537.33c.25.22.37.54.37.98,0,.46-.11.8-.34,1.03s-.62.36-1.2.42l-.63.06c-.77.08-1.33.34-1.67.76-.34.42-.51.96-.51,1.62v4.01c0,.49-.15.86-.45,1.11-.3.25-.68.38-1.12.38s-.84-.13-1.14-.38-.45-.62-.45-1.11v-7.71c0-.46.15-.82.46-1.07s.68-.38,1.11-.38.77.12,1.05.37.42.58.42,1.02v.57c.25-.6.63-1.06,1.14-1.39s1.07-.5,1.67-.55l.29-.02c.42-.03.75.07,1,.28Z"/>
          <path class="cls-1" d="M449.33,544.83c.18.22.26.51.26.86,0,.24-.07.46-.21.66-.14.2-.34.38-.59.52-.48.25-1.03.46-1.66.62-.63.16-1.21.24-1.74.24-1.12,0-2.1-.22-2.93-.65-.83-.43-1.47-1.05-1.92-1.86-.45-.81-.67-1.75-.67-2.85s.22-1.98.65-2.79c.43-.81,1.04-1.45,1.81-1.9.77-.46,1.64-.68,2.62-.68s1.76.21,2.47.62c.71.41,1.26,1,1.65,1.76.39.76.59,1.66.59,2.68,0,.31-.07.54-.22.7-.15.16-.35.24-.62.24h-5.88c.1.83.35,1.43.76,1.8.41.37.99.56,1.74.56.41,0,.77-.05,1.09-.15.32-.1.68-.23,1.07-.4.2-.08.38-.16.57-.22.18-.06.34-.09.48-.09.28,0,.51.11.68.34ZM443.59,539.76c-.36.38-.58.94-.65,1.67h4.05c-.04-.74-.23-1.3-.56-1.68-.33-.38-.79-.57-1.4-.57s-1.08.19-1.45.58Z"/>
          <path class="cls-1" d="M460.31,537.68c.69.46,1.23,1.09,1.62,1.91.38.82.58,1.76.58,2.82s-.19,2-.58,2.8c-.39.8-.92,1.42-1.61,1.86-.69.43-1.48.65-2.37.65-.7,0-1.33-.14-1.9-.43-.57-.29-1-.69-1.31-1.21v3.97c0,.42-.14.76-.42,1.01-.28.25-.65.38-1.11.38-.49,0-.89-.13-1.19-.4-.3-.27-.45-.62-.45-1.05v-11.47c0-.45.14-.81.43-1.08s.67-.41,1.14-.41.85.14,1.13.41c.28.27.42.63.42,1.08v.17c.31-.53.75-.95,1.32-1.25s1.22-.45,1.93-.45c.88,0,1.67.23,2.36.68ZM458.75,544.57c.41-.5.61-1.21.61-2.15s-.2-1.69-.61-2.21c-.41-.53-.98-.79-1.72-.79s-1.32.25-1.72.77c-.41.51-.61,1.24-.61,2.2s.2,1.66.61,2.17.98.77,1.72.77,1.32-.25,1.72-.75Z"/>
          <path class="cls-1" d="M472.44,538.1c.73.73,1.09,1.86,1.09,3.37v4.75c0,.46-.13.82-.4,1.08-.27.26-.64.39-1.11.39-.45,0-.81-.14-1.08-.41-.27-.27-.41-.62-.41-1.06v-.15c-.21.52-.56.92-1.05,1.22-.49.29-1.06.44-1.72.44-.7,0-1.33-.14-1.9-.42s-1.02-.67-1.34-1.18c-.33-.5-.49-1.06-.49-1.68,0-.76.19-1.35.58-1.79.38-.43,1-.75,1.86-.94.85-.2,2.02-.29,3.51-.29h.55v-.38c0-.59-.13-1.01-.39-1.28-.26-.27-.69-.4-1.29-.4s-1.47.21-2.6.63c-.32.15-.59.23-.82.23-.31,0-.55-.11-.74-.33-.18-.22-.27-.5-.27-.85,0-.28.06-.51.19-.69s.33-.35.61-.5c.49-.27,1.09-.48,1.79-.63.71-.15,1.4-.23,2.09-.23,1.51,0,2.63.37,3.36,1.1ZM469.94,544.93c.38-.41.57-.95.57-1.61v-.36h-.36c-1.13,0-1.93.09-2.38.27-.46.18-.68.51-.68.99,0,.39.13.71.39.96.26.25.58.37.98.37.62,0,1.11-.21,1.49-.62Z"/>
          <path class="cls-1" d="M483.06,537.33c.25.22.37.54.37.98,0,.46-.11.8-.34,1.03s-.62.36-1.2.42l-.63.06c-.77.08-1.33.34-1.67.76-.34.42-.51.96-.51,1.62v4.01c0,.49-.15.86-.45,1.11-.3.25-.68.38-1.12.38s-.84-.13-1.14-.38-.45-.62-.45-1.11v-7.71c0-.46.15-.82.46-1.07s.68-.38,1.11-.38.77.12,1.05.37.42.58.42,1.02v.57c.25-.6.63-1.06,1.14-1.39s1.07-.5,1.67-.55l.29-.02c.42-.03.75.07,1,.28Z"/>
          <path class="cls-1" d="M493.07,544.83c.18.22.26.51.26.86,0,.24-.07.46-.21.66-.14.2-.34.38-.59.52-.48.25-1.03.46-1.66.62-.63.16-1.21.24-1.74.24-1.12,0-2.1-.22-2.93-.65-.83-.43-1.47-1.05-1.92-1.86-.45-.81-.67-1.75-.67-2.85s.22-1.98.65-2.79c.43-.81,1.04-1.45,1.81-1.9.77-.46,1.64-.68,2.62-.68s1.76.21,2.47.62c.71.41,1.26,1,1.65,1.76.39.76.59,1.66.59,2.68,0,.31-.07.54-.22.7-.15.16-.35.24-.62.24h-5.88c.1.83.35,1.43.76,1.8.41.37.99.56,1.74.56.41,0,.77-.05,1.09-.15.32-.1.68-.23,1.07-.4.2-.08.38-.16.57-.22.18-.06.34-.09.48-.09.28,0,.51.11.68.34ZM487.33,539.76c-.36.38-.58.94-.65,1.67h4.05c-.04-.74-.23-1.3-.56-1.68-.33-.38-.79-.57-1.4-.57s-1.08.19-1.45.58Z"/>
          <path class="cls-1" d="M505.3,533.05c.3.27.45.62.45,1.05v12.1c0,.45-.14.81-.43,1.08-.29.27-.67.41-1.14.41s-.86-.14-1.14-.41c-.29-.27-.43-.63-.43-1.08v-.17c-.31.53-.75.95-1.31,1.25-.57.3-1.21.45-1.92.45-.88,0-1.67-.23-2.36-.68-.69-.46-1.23-1.09-1.62-1.91-.39-.82-.58-1.76-.58-2.83s.19-2,.58-2.8c.38-.8.92-1.42,1.61-1.86.69-.43,1.48-.65,2.37-.65.7,0,1.33.15,1.9.44.57.29,1,.71,1.31,1.24v-4.64c0-.42.14-.76.42-1.01s.65-.38,1.11-.38c.49,0,.88.13,1.19.4ZM502,544.55c.4-.51.6-1.24.6-2.19s-.2-1.68-.6-2.18c-.4-.5-.97-.76-1.71-.76s-1.32.25-1.72.75c-.41.5-.61,1.21-.61,2.15s.2,1.69.61,2.22c.41.53.98.79,1.72.79s1.31-.26,1.71-.77Z"/>
          <path class="cls-1" d="M522.04,538.1c.73.73,1.09,1.86,1.09,3.37v4.75c0,.46-.13.82-.4,1.08-.27.26-.64.39-1.11.39-.45,0-.81-.14-1.08-.41-.27-.27-.41-.62-.41-1.06v-.15c-.21.52-.56.92-1.05,1.22-.49.29-1.06.44-1.72.44-.7,0-1.33-.14-1.9-.42s-1.02-.67-1.34-1.18c-.33-.5-.49-1.06-.49-1.68,0-.76.19-1.35.58-1.79.38-.43,1-.75,1.86-.94.85-.2,2.02-.29,3.51-.29h.55v-.38c0-.59-.13-1.01-.39-1.28-.26-.27-.69-.4-1.29-.4s-1.47.21-2.6.63c-.32.15-.59.23-.82.23-.31,0-.55-.11-.74-.33-.18-.22-.27-.5-.27-.85,0-.28.06-.51.19-.69s.33-.35.61-.5c.49-.27,1.09-.48,1.79-.63.71-.15,1.4-.23,2.09-.23,1.51,0,2.63.37,3.36,1.1ZM519.54,544.93c.38-.41.57-.95.57-1.61v-.36h-.36c-1.13,0-1.93.09-2.38.27-.46.18-.68.51-.68.99,0,.39.13.71.39.96.26.25.58.37.98.37.62,0,1.11-.21,1.49-.62Z"/>
          <path class="cls-1" d="M533.87,547.36c-.95-.26-1.73-.62-2.33-1.1-.21-.15-.36-.32-.45-.49-.09-.17-.14-.39-.14-.66,0-.35.11-.66.33-.92s.47-.4.75-.4c.15,0,.3.03.45.07.15.05.33.14.54.26.6.38,1.21.65,1.83.83.62.17,1.29.26,2.04.26.92,0,1.63-.15,2.12-.46.49-.31.74-.75.74-1.32,0-.43-.23-.78-.68-1.05-.46-.27-1.26-.52-2.43-.76-1.3-.27-2.34-.59-3.12-.97-.78-.38-1.34-.85-1.7-1.41-.36-.56-.54-1.24-.54-2.04,0-.88.26-1.68.77-2.38.51-.71,1.22-1.26,2.12-1.66.9-.4,1.92-.6,3.06-.6,1.99,0,3.63.5,4.91,1.49.21.17.36.34.45.51s.14.39.14.64c0,.35-.11.66-.33.92-.22.27-.47.4-.75.4-.15,0-.3-.02-.43-.06-.13-.04-.32-.13-.56-.27-.57-.37-1.1-.64-1.59-.82-.48-.18-1.1-.27-1.84-.27-.85,0-1.53.17-2.02.49-.49.33-.73.78-.73,1.36,0,.34.09.61.28.83.19.22.5.41.95.58.44.17,1.07.34,1.88.53,1.9.42,3.27.96,4.11,1.62s1.25,1.56,1.25,2.71c0,.9-.25,1.69-.75,2.37s-1.2,1.22-2.1,1.6-1.95.57-3.14.57c-1.11,0-2.13-.13-3.09-.39Z"/>
          <path class="cls-1" d="M554.26,538.08c.6.72.9,1.81.9,3.27v4.85c0,.46-.14.83-.43,1.09s-.68.4-1.17.4-.88-.13-1.16-.4c-.28-.27-.42-.63-.42-1.09v-4.7c0-.7-.13-1.21-.39-1.53-.26-.32-.66-.48-1.21-.48-.66,0-1.19.21-1.59.63s-.6.98-.6,1.68v4.41c0,.46-.14.83-.42,1.09s-.67.4-1.16.4-.88-.13-1.17-.4c-.29-.27-.43-.63-.43-1.09v-7.71c0-.43.15-.79.45-1.05s.69-.4,1.17-.4c.43,0,.79.13,1.06.39.27.26.41.59.41,1v.29c.36-.56.84-.99,1.42-1.28.58-.29,1.24-.44,1.96-.44,1.23,0,2.15.36,2.75,1.08Z"/>
          <path class="cls-1" d="M565.53,538.1c.73.73,1.09,1.86,1.09,3.37v4.75c0,.46-.13.82-.4,1.08-.27.26-.64.39-1.11.39-.45,0-.81-.14-1.08-.41-.27-.27-.41-.62-.41-1.06v-.15c-.21.52-.56.92-1.05,1.22-.49.29-1.06.44-1.72.44-.7,0-1.33-.14-1.9-.42s-1.02-.67-1.34-1.18c-.33-.5-.49-1.06-.49-1.68,0-.76.19-1.35.58-1.79.38-.43,1-.75,1.86-.94.85-.2,2.02-.29,3.51-.29h.55v-.38c0-.59-.13-1.01-.39-1.28-.26-.27-.69-.4-1.29-.4s-1.47.21-2.6.63c-.32.15-.59.23-.82.23-.31,0-.55-.11-.74-.33-.18-.22-.27-.5-.27-.85,0-.28.06-.51.19-.69s.33-.35.61-.5c.49-.27,1.09-.48,1.79-.63.71-.15,1.4-.23,2.09-.23,1.51,0,2.63.37,3.36,1.1ZM563.03,544.93c.38-.41.57-.95.57-1.61v-.36h-.36c-1.13,0-1.93.09-2.38.27-.46.18-.68.51-.68.99,0,.39.13.71.39.96.26.25.58.37.98.37.62,0,1.11-.21,1.49-.62Z"/>
          <path class="cls-1" d="M570.97,547.08c-.8-.43-1.41-1.05-1.84-1.85s-.64-1.74-.64-2.81.23-2.03.68-2.85c.46-.82,1.1-1.45,1.92-1.9.83-.45,1.78-.67,2.86-.67.56,0,1.12.08,1.69.23.57.15,1.08.37,1.52.65.43.27.65.66.65,1.18,0,.36-.08.66-.25.89s-.39.35-.67.35c-.18,0-.35-.03-.51-.09s-.38-.16-.64-.28c-.29-.15-.56-.27-.79-.36-.23-.08-.49-.13-.79-.13-.78,0-1.38.25-1.79.75-.41.5-.62,1.22-.62,2.17s.21,1.68.62,2.18,1.01.76,1.79.76c.29,0,.55-.04.78-.12.22-.08.5-.2.82-.37.27-.13.48-.22.63-.28.15-.06.32-.09.5-.09.27,0,.49.12.66.36.17.24.26.54.26.9,0,.52-.22.9-.65,1.16-.45.28-.97.5-1.55.65-.59.15-1.2.23-1.85.23-1.06,0-2-.22-2.79-.65Z"/>
          <path class="cls-1" d="M589.58,546.16c0,.39-.14.74-.43,1.05-.29.31-.62.46-1,.46s-.7-.15-1.01-.44l-4.6-4.26v3.21c0,.49-.15.86-.45,1.11-.3.25-.68.38-1.12.38s-.84-.12-1.14-.38-.45-.62-.45-1.11v-12.03c0-.49.15-.86.45-1.11s.68-.38,1.14-.38.82.13,1.12.38c.3.25.45.62.45,1.11v7.52l4.2-4.14c.31-.31.65-.46,1.03-.46s.73.14,1.03.43.44.63.44,1.02c0,.36-.16.71-.48,1.03l-2.79,2.67,3.13,2.9c.32.31.48.66.48,1.05Z"/>
        </g>
        <g>
          <path class="cls-1" d="M541.26,472.6c1.51,0,2.74-1.23,2.74-2.74v-10.96c0-1.51-1.23-2.74-2.74-2.74h-35.61v-5.98c3.18-1.13,5.48-4.15,5.48-7.71,0-4.53-3.69-8.22-8.22-8.22s-8.22,3.69-8.22,8.22c0,3.57,2.3,6.58,5.48,7.71v5.98h-35.61c-1.51,0-2.74,1.23-2.74,2.74v10.96c0,1.51,1.23,2.74,2.74,2.74h2.74v5.96c-2.69.92-4.52,2.88-4.78,3.17-1,1.12-.91,2.84.21,3.85,1.11,1.01,2.84.93,3.86-.18.14-.15.39-.39.71-.64v9.75h71.22v-9.79c.23.2.47.41.7.65,1.01,1.13,2.75,1.22,3.87.21,1.13-1.01,1.22-2.74.21-3.87-1.39-1.56-3.04-2.62-4.78-3.18v-5.95h2.74ZM533.04,478.53c-1.69.53-3.32,1.58-4.76,3.18,0,0,0,0,0,0-2.21,2.4-4.69,2.41-6.89.01-4.24-4.74-10.61-4.91-15.02-.02,0,0,0,0,0,0-2.21,2.4-4.69,2.41-6.89.01-4.24-4.74-10.61-4.91-15.02-.02,0,0,0,0,0,0-2.21,2.4-4.69,2.41-6.89.01-.25-.28-2.09-2.25-4.78-3.17v-5.96h60.27v5.93h0Z"/>
          <path class="cls-1" d="M541.26,499.99h-76.7c-1.51,0-2.74,1.23-2.74,2.74v5.48c0,1.51,1.23,2.74,2.74,2.74h35.61v4.57c0,1.51,1.23,2.74,2.74,2.74s2.74-1.23,2.74-2.74v-4.57h35.61c1.51,0,2.74-1.23,2.74-2.74v-5.48c0-1.51-1.23-2.74-2.74-2.74Z"/>
        </g>
      </g>
      <g>
        <g>
          <path class="cls-1" d="M442.49,346.31c.26-.17.55-.26.87-.26.41,0,.75.13,1.04.38.29.25.43.6.43,1.03,0,.21-.04.44-.13.69l-4.37,11.95c-.13.34-.35.6-.66.79-.31.19-.66.28-1.04.28s-.72-.09-1.03-.28c-.31-.19-.52-.45-.65-.79l-3.13-8.84-3.21,8.84c-.13.34-.34.6-.65.79-.31.19-.65.28-1.03.28s-.7-.09-1.02-.28c-.31-.19-.54-.45-.66-.79l-4.37-11.95c-.08-.24-.13-.46-.13-.67,0-.43.15-.78.46-1.04.31-.26.67-.39,1.09-.39.34,0,.64.09.91.26.27.18.47.43.6.77l3.23,9.3,3.36-9.26c.13-.34.33-.6.6-.78.27-.18.56-.27.87-.27s.62.09.88.27c.27.18.46.45.59.8l3.21,9.41,3.34-9.47c.13-.34.32-.59.58-.77Z"/>
          <path class="cls-1" d="M454.41,358.27c.18.22.26.51.26.86,0,.24-.07.46-.21.66-.14.2-.34.37-.59.51-.48.25-1.03.46-1.66.62-.63.16-1.21.24-1.74.24-1.12,0-2.1-.22-2.93-.65-.83-.43-1.47-1.05-1.92-1.86-.45-.81-.67-1.75-.67-2.85s.22-1.98.65-2.79c.43-.81,1.04-1.45,1.81-1.9s1.65-.68,2.62-.68,1.76.21,2.47.62c.71.41,1.26,1,1.65,1.76.39.76.59,1.66.59,2.68,0,.31-.07.54-.22.7s-.35.24-.62.24h-5.88c.1.83.35,1.42.76,1.8.41.37.99.56,1.74.56.41,0,.77-.05,1.09-.15.32-.1.68-.23,1.07-.4.2-.08.38-.16.57-.22s.34-.09.48-.09c.28,0,.51.11.68.34ZM448.67,353.2c-.36.38-.58.94-.65,1.67h4.05c-.04-.74-.23-1.3-.56-1.68s-.79-.57-1.4-.57-1.08.19-1.45.58Z"/>
          <path class="cls-1" d="M465.87,351.52c.6.72.9,1.81.9,3.27v4.85c0,.46-.14.83-.43,1.09-.29.27-.68.4-1.17.4s-.88-.13-1.16-.4c-.28-.27-.42-.63-.42-1.09v-4.7c0-.7-.13-1.21-.39-1.53-.26-.32-.66-.48-1.21-.48-.66,0-1.19.21-1.59.63-.4.42-.6.98-.6,1.68v4.41c0,.46-.14.83-.42,1.09-.28.27-.67.4-1.16.4s-.88-.13-1.17-.4c-.29-.27-.43-.63-.43-1.09v-7.71c0-.43.15-.78.45-1.05.3-.27.69-.4,1.17-.4.43,0,.79.13,1.06.39s.41.59.41,1v.29c.36-.56.84-.99,1.42-1.28.58-.29,1.24-.44,1.96-.44,1.23,0,2.15.36,2.75,1.08Z"/>
          <path class="cls-1" d="M475.8,359.13c.2.18.29.45.29.8,0,.41-.16.71-.48.92-.32.21-.78.29-1.39.25l-.59-.04c-2.45-.2-3.67-1.48-3.67-3.84v-4.16h-.84c-.46,0-.81-.1-1.05-.3-.24-.2-.36-.49-.36-.87s.12-.69.36-.89.59-.3,1.05-.3h.84v-1.64c0-.46.14-.83.43-1.09.29-.27.68-.4,1.17-.4s.88.13,1.16.4c.28.27.42.63.42,1.09v1.64h1.47c.95,0,1.43.4,1.43,1.2,0,.38-.12.67-.36.87-.24.2-.6.3-1.07.3h-1.47v4.39c0,.42.1.74.29.96.2.22.48.34.86.37l.59.04c.42.03.73.13.92.31Z"/>
          <path class="cls-1" d="M487.5,349.03c-.25.31-.38.74-.38,1.3v.36h1.47c.95,0,1.43.4,1.43,1.2s-.48,1.18-1.43,1.18h-1.47v6.55c0,.49-.15.86-.45,1.11s-.68.38-1.12.38-.84-.13-1.14-.38c-.3-.25-.45-.62-.45-1.11v-6.55h-.84c-.94,0-1.41-.39-1.41-1.18s.47-1.2,1.41-1.2h.84c0-1.34.37-2.4,1.11-3.17s1.76-1.2,3.07-1.3l.55-.04.38-.02c.97,0,1.45.37,1.45,1.11s-.41,1.13-1.22,1.2l-.55.04c-.57.04-.99.22-1.24.52Z"/>
          <path class="cls-1" d="M493,360.51c-.83-.44-1.46-1.06-1.91-1.87-.45-.81-.67-1.75-.67-2.85s.22-2.04.67-2.85c.45-.8,1.08-1.42,1.91-1.86.83-.43,1.79-.65,2.88-.65s2.05.22,2.88.65c.83.43,1.46,1.05,1.91,1.86.45.81.67,1.75.67,2.85s-.22,2.04-.67,2.85c-.45.81-1.08,1.43-1.91,1.87s-1.78.66-2.88.66-2.05-.22-2.88-.66ZM498.19,355.79c0-.99-.2-1.74-.6-2.23-.4-.49-.97-.73-1.71-.73-1.54,0-2.31.99-2.31,2.96s.77,2.96,2.31,2.96,2.31-.99,2.31-2.96Z"/>
          <path class="cls-1" d="M510.42,350.76c.24.22.37.54.37.98,0,.46-.11.81-.34,1.03-.22.22-.62.36-1.2.42l-.63.06c-.77.08-1.33.34-1.67.76s-.51.96-.51,1.62v4.01c0,.49-.15.86-.45,1.11-.3.25-.68.38-1.12.38s-.84-.13-1.14-.38c-.3-.25-.45-.62-.45-1.11v-7.71c0-.46.15-.82.46-1.07.31-.25.68-.38,1.11-.38s.77.12,1.05.37c.28.25.42.58.42,1.02v.57c.25-.6.63-1.06,1.14-1.39.51-.32,1.07-.5,1.67-.55l.29-.02c.42-.03.75.07,1,.28Z"/>
          <path class="cls-1" d="M525.55,351.54c.73.73,1.09,1.86,1.09,3.37v4.75c0,.46-.13.82-.4,1.08-.27.26-.64.39-1.11.39-.45,0-.81-.14-1.08-.41-.27-.27-.41-.63-.41-1.06v-.15c-.21.52-.56.92-1.05,1.22s-1.06.44-1.72.44c-.7,0-1.33-.14-1.9-.42-.57-.28-1.02-.67-1.34-1.18-.33-.5-.49-1.06-.49-1.68,0-.76.19-1.35.58-1.79.38-.43,1-.75,1.86-.94.85-.2,2.02-.29,3.51-.29h.55v-.38c0-.59-.13-1.02-.39-1.28-.26-.27-.69-.4-1.29-.4s-1.47.21-2.6.63c-.32.15-.6.23-.82.23-.31,0-.55-.11-.73-.33-.18-.22-.27-.5-.27-.85,0-.28.06-.51.19-.69.13-.18.33-.35.61-.5.49-.27,1.09-.48,1.8-.63.71-.15,1.4-.23,2.09-.23,1.51,0,2.63.37,3.36,1.1ZM523.05,358.36c.38-.41.57-.95.57-1.61v-.36h-.36c-1.13,0-1.93.09-2.38.27-.46.18-.68.51-.68.99,0,.39.13.71.39.96.26.25.58.37.98.37.62,0,1.11-.21,1.49-.62Z"/>
          <path class="cls-1" d="M554.06,346.31c.26-.17.55-.26.87-.26.41,0,.75.13,1.04.38.29.25.43.6.43,1.03,0,.21-.04.44-.13.69l-4.37,11.95c-.13.34-.35.6-.66.79-.31.19-.66.28-1.04.28s-.72-.09-1.03-.28c-.31-.19-.52-.45-.65-.79l-3.13-8.84-3.21,8.84c-.13.34-.34.6-.65.79-.31.19-.65.28-1.03.28s-.7-.09-1.02-.28c-.31-.19-.54-.45-.66-.79l-4.37-11.95c-.08-.24-.13-.46-.13-.67,0-.43.15-.78.46-1.04.31-.26.67-.39,1.09-.39.34,0,.64.09.91.26.27.18.47.43.6.77l3.23,9.3,3.36-9.26c.13-.34.33-.6.6-.78.27-.18.56-.27.87-.27s.62.09.88.27c.27.18.46.45.59.8l3.21,9.41,3.34-9.47c.13-.34.32-.59.58-.77Z"/>
          <path class="cls-1" d="M565.03,351.54c.73.73,1.09,1.86,1.09,3.37v4.75c0,.46-.13.82-.4,1.08-.27.26-.64.39-1.11.39-.45,0-.81-.14-1.08-.41-.27-.27-.41-.63-.41-1.06v-.15c-.21.52-.56.92-1.05,1.22s-1.06.44-1.72.44c-.7,0-1.33-.14-1.9-.42-.57-.28-1.02-.67-1.34-1.18-.33-.5-.49-1.06-.49-1.68,0-.76.19-1.35.58-1.79.38-.43,1-.75,1.86-.94.85-.2,2.02-.29,3.51-.29h.55v-.38c0-.59-.13-1.02-.39-1.28-.26-.27-.69-.4-1.29-.4s-1.47.21-2.6.63c-.32.15-.6.23-.82.23-.31,0-.55-.11-.73-.33-.18-.22-.27-.5-.27-.85,0-.28.06-.51.19-.69.13-.18.33-.35.61-.5.49-.27,1.09-.48,1.8-.63.71-.15,1.4-.23,2.09-.23,1.51,0,2.63.37,3.36,1.1ZM562.53,358.36c.38-.41.57-.95.57-1.61v-.36h-.36c-1.13,0-1.93.09-2.38.27-.46.18-.68.51-.68.99,0,.39.13.71.39.96.26.25.58.37.98.37.62,0,1.11-.21,1.49-.62Z"/>
          <path class="cls-1" d="M568.95,360.75c-.3-.25-.45-.62-.45-1.11v-12.05c0-.49.15-.86.45-1.11.3-.25.68-.38,1.14-.38s.82.13,1.12.38c.3.25.45.62.45,1.11v12.05c0,.49-.15.86-.45,1.11-.3.25-.68.38-1.12.38s-.84-.13-1.14-.38Z"/>
          <path class="cls-1" d="M584.31,359.59c0,.39-.14.74-.43,1.05-.29.31-.62.46-1,.46s-.7-.15-1.01-.44l-4.6-4.26v3.21c0,.49-.15.86-.45,1.11-.3.25-.68.38-1.12.38s-.84-.13-1.14-.38c-.3-.25-.45-.62-.45-1.11v-12.03c0-.49.15-.86.45-1.11.3-.25.68-.38,1.14-.38s.82.13,1.12.38c.3.25.45.62.45,1.11v7.52l4.2-4.14c.31-.31.65-.46,1.03-.46s.73.14,1.03.43.44.63.44,1.02c0,.36-.16.71-.48,1.03l-2.79,2.67,3.13,2.9c.32.31.48.66.48,1.05Z"/>
        </g>
        <path class="cls-1" d="M485.09,310.42l3.5-8.17,8.5,8.5-2.79,5.71c-.27.54-.62,1.04-1.06,1.46l-10.52,10.26c-2.06,2.01-5.36,1.98-7.4-.05-2.08-2.06-2.09-5.44-.01-7.5l8.64-8.56c.48-.48.87-1.04,1.13-1.67h0ZM489.22,280.64l4.36-1.73-2.98,13.61c-.18.81.04,1.65.57,2.28l.05.05,8.78,9.93-.03.09.04-.08,5.4,7.29c.4.55.7,1.16.87,1.82l3.04,11.78c.73,2.84,3.66,4.52,6.48,3.77,2.78-.74,4.46-3.58,3.77-6.37l-3.51-14.04c-.18-.73-.52-1.42-.99-2.01l-8.95-11.24,2.78-10.83,1.6,4.24c.35.93.95,1.74,1.74,2.34l5.58,4.24c2.31,1.76,5.6,1.31,7.37-.99,1.78-2.31,1.33-5.63-.99-7.4l-4.13-3.15c-.74-.57-1.32-1.32-1.68-2.19l-3.57-8.69c-.46-1.12-1.3-1.98-2.31-2.48v-.02s-4.23-2.87-7.32-3.7c-3.22-.87-8.34-.32-8.92-.25-.65,0-1.31.12-1.95.37l-12,4.74c-.28.11-.53.3-.71.54l-5.46,7.27c-1.74,2.32-1.27,5.62,1.05,7.37,2.32,1.75,5.63,1.29,7.38-1.03l3.51-4.65c.29-.39.68-.68,1.13-.86h0ZM506.58,263.94c5.09,0,9.22-4.13,9.22-9.22s-4.13-9.22-9.22-9.22-9.22,4.13-9.22,9.22,4.13,9.22,9.22,9.22Z"/>
      </g>
    </g>
    <g>
      <g class="cls-15">
        <rect class="cls-14" x="772.5" y="42" width="233" height="778" rx="82" ry="82"/>
      </g>
      <rect class="cls-14" x="772.5" width="233" height="233" rx="82" ry="82"/>
      <g>
        <g id="Page-1-4" data-name="Page-1">
          <g id="Icon-Set-Filled-4" data-name="Icon-Set-Filled">
            <path id="spoon-4" data-name="spoon" class="cls-6" d="M889.26,29.15c-18.66,0-33.79,17.54-33.79,39.18,0,17.77,10.16,33.06,24.14,37.92v100.83c0,5.41,4.32,9.79,9.65,9.8h0c5.33,0,9.65-4.39,9.65-9.8v-100.83c13.98-4.86,24.14-20.14,24.14-37.92,0-21.64-15.13-39.18-33.79-39.18h0Z"/>
          </g>
        </g>
        <g id="Page-1-5" data-name="Page-1">
          <g id="Icon-Set-Filled-5" data-name="Icon-Set-Filled">
            <path id="spoon-5" data-name="spoon" class="cls-6" d="M800.36,99.61c-11.83,14.44-8.04,37.1,8.46,50.62,13.55,11.1,31.65,12.79,44.21,5.01l68.25,52.62c4.12,3.38,10.2,2.77,13.58-1.35h0c3.37-4.13,2.77-10.21-1.35-13.59l-68.25-52.62c5.15-13.85-.07-31.26-13.62-42.36-16.5-13.52-39.46-12.77-51.29,1.67h0Z"/>
          </g>
        </g>
        <g id="Page-1-6" data-name="Page-1">
          <g id="Icon-Set-Filled-6" data-name="Icon-Set-Filled">
            <path id="spoon-6" data-name="spoon" class="cls-6" d="M977.6,99.28c-11.99-14.31-34.96-14.79-51.31-1.1-13.43,11.25-18.45,28.72-13.14,42.51l-66.76,53.21c-4.09,3.42-4.62,9.51-1.2,13.6h0c3.43,4.09,9.51,4.63,13.6,1.2l66.76-53.21c12.65,7.64,30.72,5.75,44.15-5.5,16.35-13.7,19.88-36.4,7.9-50.71h0Z"/>
          </g>
        </g>
      </g>
      <g>
        <g>
          <path class="cls-17" d="M851.91,735.88c.26-.18.55-.26.87-.26.41,0,.75.13,1.04.38.29.25.43.59.43,1.03,0,.21-.04.44-.13.69l-4.37,11.95c-.13.34-.35.6-.66.79-.31.19-.66.28-1.04.28s-.72-.09-1.03-.28c-.31-.19-.52-.45-.65-.79l-3.13-8.84-3.21,8.84c-.13.34-.34.6-.65.79-.31.19-.65.28-1.03.28s-.7-.09-1.02-.28c-.31-.19-.54-.45-.66-.79l-4.37-11.95c-.08-.24-.13-.46-.13-.67,0-.43.15-.78.46-1.04.31-.26.67-.39,1.09-.39.34,0,.64.09.91.26.27.17.47.43.6.77l3.23,9.3,3.36-9.26c.13-.34.33-.6.6-.78.27-.18.56-.27.87-.27s.62.09.88.27.46.45.59.8l3.21,9.41,3.34-9.47c.13-.34.32-.59.58-.77Z"/>
          <path class="cls-17" d="M863.84,747.83c.17.22.26.51.26.86,0,.24-.07.46-.21.66-.14.2-.34.37-.59.51-.48.25-1.03.46-1.66.62-.63.16-1.21.24-1.74.24-1.12,0-2.1-.22-2.93-.65s-1.47-1.05-1.92-1.86c-.45-.8-.67-1.75-.67-2.85s.22-1.98.65-2.79c.43-.81,1.04-1.45,1.81-1.9.77-.46,1.65-.68,2.62-.68s1.76.21,2.47.62c.71.41,1.26,1,1.65,1.76.39.76.59,1.66.59,2.68,0,.31-.07.54-.22.7-.15.16-.35.24-.62.24h-5.88c.1.83.35,1.42.76,1.8s.99.56,1.74.56c.41,0,.77-.05,1.09-.15.32-.1.68-.23,1.07-.4.2-.08.38-.16.57-.22.18-.06.34-.09.48-.09.28,0,.51.11.68.34ZM858.1,742.76c-.36.38-.58.94-.65,1.67h4.05c-.04-.74-.23-1.3-.56-1.68s-.79-.57-1.4-.57-1.08.19-1.45.58Z"/>
          <path class="cls-17" d="M875.29,741.08c.6.72.9,1.81.9,3.27v4.85c0,.46-.14.83-.43,1.09s-.68.4-1.17.4-.88-.13-1.16-.4c-.28-.27-.42-.63-.42-1.09v-4.7c0-.7-.13-1.21-.39-1.53-.26-.32-.66-.48-1.21-.48-.66,0-1.19.21-1.59.63s-.6.98-.6,1.68v4.41c0,.46-.14.83-.42,1.09s-.67.4-1.16.4-.88-.13-1.17-.4c-.29-.27-.43-.63-.43-1.09v-7.71c0-.43.15-.78.45-1.05.3-.27.69-.4,1.17-.4.43,0,.79.13,1.06.39.27.26.41.59.41,1v.29c.36-.56.84-.99,1.42-1.28.58-.29,1.24-.44,1.96-.44,1.23,0,2.15.36,2.75,1.08Z"/>
          <path class="cls-17" d="M885.23,748.7c.2.18.29.45.29.8,0,.41-.16.71-.48.92-.32.21-.78.29-1.39.25l-.59-.04c-2.45-.2-3.67-1.48-3.67-3.84v-4.16h-.84c-.46,0-.81-.1-1.05-.3-.24-.2-.36-.49-.36-.87s.12-.69.36-.89c.24-.2.59-.3,1.05-.3h.84v-1.64c0-.46.14-.83.43-1.09s.67-.4,1.17-.4.88.13,1.16.4.42.63.42,1.09v1.64h1.47c.95,0,1.43.4,1.43,1.2,0,.38-.12.67-.36.87-.24.2-.59.3-1.07.3h-1.47v4.39c0,.42.1.74.29.96s.48.34.86.37l.59.04c.42.03.73.13.92.32Z"/>
          <path class="cls-17" d="M899.21,748.7c.2.18.29.45.29.8,0,.41-.16.71-.48.92s-.78.29-1.39.25l-.59-.04c-2.45-.2-3.67-1.48-3.67-3.84v-4.16h-.84c-.46,0-.81-.1-1.05-.3-.24-.2-.36-.49-.36-.87s.12-.69.36-.89c.24-.2.59-.3,1.05-.3h.84v-1.64c0-.46.14-.83.43-1.09s.68-.4,1.17-.4.88.13,1.16.4c.28.27.42.63.42,1.09v1.64h1.47c.95,0,1.43.4,1.43,1.2,0,.38-.12.67-.36.87-.24.2-.6.3-1.07.3h-1.47v4.39c0,.42.1.74.29.96.2.22.48.34.86.37l.59.04c.42.03.73.13.92.32Z"/>
          <path class="cls-17" d="M902.76,750.07c-.83-.44-1.46-1.06-1.91-1.87-.45-.8-.67-1.75-.67-2.85s.22-2.04.67-2.85c.45-.8,1.08-1.42,1.91-1.86s1.79-.65,2.88-.65,2.05.22,2.88.65,1.46,1.05,1.91,1.86c.45.81.67,1.75.67,2.85s-.22,2.04-.67,2.85c-.45.81-1.08,1.43-1.91,1.87s-1.79.66-2.88.66-2.05-.22-2.88-.66ZM907.95,745.36c0-.99-.2-1.74-.6-2.23-.4-.49-.97-.74-1.71-.74-1.54,0-2.31.99-2.31,2.96s.77,2.96,2.31,2.96,2.31-.99,2.31-2.96Z"/>
          <path class="cls-17" d="M926.89,741.1c.73.73,1.09,1.86,1.09,3.37v4.75c0,.46-.13.82-.4,1.08-.27.26-.64.39-1.11.39-.45,0-.81-.14-1.08-.41s-.41-.63-.41-1.06v-.15c-.21.52-.56.92-1.05,1.22s-1.06.44-1.72.44c-.7,0-1.33-.14-1.9-.42-.57-.28-1.02-.67-1.34-1.18-.33-.5-.49-1.06-.49-1.68,0-.76.19-1.35.58-1.79.38-.43,1-.75,1.86-.94.85-.2,2.02-.29,3.51-.29h.55v-.38c0-.59-.13-1.02-.39-1.28s-.69-.4-1.29-.4-1.47.21-2.6.63c-.32.15-.59.23-.82.23-.31,0-.55-.11-.74-.32-.18-.22-.27-.5-.27-.85,0-.28.06-.51.19-.69.13-.18.33-.35.61-.5.49-.27,1.09-.47,1.79-.63s1.4-.23,2.09-.23c1.51,0,2.63.37,3.36,1.1ZM924.39,747.93c.38-.41.57-.95.57-1.61v-.36h-.36c-1.13,0-1.93.09-2.38.27s-.68.51-.68.99c0,.39.13.71.39.96.26.25.58.37.98.37.62,0,1.11-.21,1.49-.62Z"/>
          <path class="cls-17" d="M939.57,741.08c.6.72.9,1.81.9,3.27v4.85c0,.46-.14.83-.43,1.09-.29.27-.68.4-1.17.4s-.88-.13-1.16-.4-.42-.63-.42-1.09v-4.7c0-.7-.13-1.21-.39-1.53-.26-.32-.66-.48-1.21-.48-.66,0-1.19.21-1.59.63-.4.42-.6.98-.6,1.68v4.41c0,.46-.14.83-.42,1.09-.28.27-.67.4-1.16.4s-.88-.13-1.17-.4-.43-.63-.43-1.09v-7.71c0-.43.15-.78.45-1.05.3-.27.69-.4,1.17-.4.43,0,.79.13,1.06.39.27.26.41.59.41,1v.29c.36-.56.84-.99,1.42-1.28.58-.29,1.24-.44,1.96-.44,1.23,0,2.15.36,2.75,1.08Z"/>
          <path class="cls-17" d="M834.09,774.44c0,.39-.16.72-.47,1-.31.27-.67.41-1.08.41-.27,0-.52-.07-.76-.22-.24-.15-.42-.37-.55-.66l-1.11-2.48h-7.12l-1.11,2.48c-.13.29-.3.51-.54.66-.23.15-.49.22-.77.22-.41,0-.77-.14-1.09-.41s-.48-.6-.48-1c0-.2.06-.42.17-.67l5.67-11.91c.15-.34.39-.59.69-.77.31-.17.64-.26.99-.26s.7.09,1.01.27c.31.18.55.43.71.76l5.67,11.91c.11.25.17.48.17.67ZM829.01,770.01l-2.44-5.46-2.46,5.46h4.89Z"/>
          <path class="cls-17" d="M844.39,765.88c.69.46,1.23,1.09,1.62,1.91.38.82.58,1.76.58,2.82s-.19,2-.58,2.8c-.39.81-.92,1.42-1.61,1.86-.69.43-1.48.65-2.37.65-.7,0-1.33-.14-1.9-.43-.57-.29-1-.69-1.31-1.21v3.97c0,.42-.14.76-.42,1.01-.28.25-.65.38-1.11.38-.49,0-.89-.13-1.19-.4-.3-.27-.45-.62-.45-1.05v-11.47c0-.45.14-.81.43-1.08.29-.27.67-.41,1.14-.41s.85.14,1.13.41c.28.27.42.63.42,1.08v.17c.31-.53.75-.95,1.32-1.25.57-.3,1.22-.45,1.93-.45.88,0,1.67.23,2.36.68ZM842.83,772.77c.41-.5.61-1.21.61-2.15s-.2-1.69-.61-2.21c-.41-.53-.98-.79-1.72-.79s-1.32.25-1.72.77-.61,1.24-.61,2.19.2,1.66.61,2.17c.41.51.98.77,1.72.77s1.32-.25,1.72-.75Z"/>
          <path class="cls-17" d="M857.27,765.88c.69.46,1.23,1.09,1.62,1.91.38.82.58,1.76.58,2.82s-.19,2-.58,2.8-.92,1.42-1.61,1.86-1.48.65-2.37.65c-.7,0-1.33-.14-1.9-.43s-1-.69-1.31-1.21v3.97c0,.42-.14.76-.42,1.01s-.65.38-1.11.38c-.49,0-.89-.13-1.19-.4s-.45-.62-.45-1.05v-11.47c0-.45.14-.81.43-1.08.29-.27.67-.41,1.14-.41s.85.14,1.13.41c.28.27.42.63.42,1.08v.17c.31-.53.75-.95,1.32-1.25.57-.3,1.22-.45,1.93-.45.88,0,1.67.23,2.36.68ZM855.7,772.77c.41-.5.61-1.21.61-2.15s-.2-1.69-.61-2.21c-.41-.53-.98-.79-1.72-.79s-1.32.25-1.72.77c-.41.51-.61,1.24-.61,2.19s.2,1.66.61,2.17c.41.51.98.77,1.72.77s1.32-.25,1.72-.75Z"/>
          <path class="cls-17" d="M863.47,775.27c-.83-.44-1.46-1.06-1.91-1.87-.45-.81-.67-1.75-.67-2.85s.22-2.04.67-2.85,1.08-1.42,1.91-1.86c.83-.43,1.79-.65,2.88-.65s2.05.22,2.88.65c.83.43,1.46,1.05,1.91,1.86.45.8.67,1.75.67,2.85s-.22,2.04-.67,2.85c-.45.8-1.08,1.43-1.91,1.87s-1.79.66-2.88.66-2.05-.22-2.88-.66ZM868.66,770.56c0-.99-.2-1.74-.6-2.23-.4-.49-.97-.73-1.71-.73-1.54,0-2.31.99-2.31,2.96s.77,2.96,2.31,2.96,2.31-.99,2.31-2.96Z"/>
          <path class="cls-17" d="M874.01,763.13c-.32-.29-.48-.68-.48-1.17s.16-.88.48-1.15c.32-.28.76-.42,1.32-.42s.98.14,1.31.43.49.67.49,1.14-.16.88-.48,1.17-.76.43-1.32.43-1-.14-1.32-.43ZM874.19,775.51c-.3-.25-.45-.62-.45-1.11v-7.66c0-.49.15-.86.46-1.11s.69-.38,1.13-.38.82.13,1.12.38c.3.25.45.62.45,1.11v7.66c0,.49-.15.86-.45,1.11-.3.25-.68.38-1.12.38s-.84-.13-1.14-.38Z"/>
          <path class="cls-17" d="M888.57,766.28c.6.72.9,1.81.9,3.27v4.85c0,.46-.14.83-.43,1.09-.29.27-.68.4-1.17.4s-.88-.13-1.16-.4c-.28-.27-.42-.63-.42-1.09v-4.7c0-.7-.13-1.21-.39-1.53-.26-.32-.66-.48-1.21-.48-.66,0-1.19.21-1.59.63-.4.42-.6.98-.6,1.68v4.41c0,.46-.14.83-.42,1.09-.28.27-.67.4-1.16.4s-.88-.13-1.17-.4c-.29-.27-.43-.63-.43-1.09v-7.71c0-.43.15-.78.45-1.05.3-.27.69-.4,1.17-.4.43,0,.79.13,1.06.39.27.26.41.59.41,1v.29c.36-.56.84-.99,1.42-1.28.58-.29,1.24-.44,1.96-.44,1.23,0,2.15.36,2.75,1.08Z"/>
          <path class="cls-17" d="M898.5,773.89c.2.18.29.45.29.8,0,.41-.16.71-.48.92-.32.21-.78.29-1.39.25l-.59-.04c-2.45-.2-3.67-1.48-3.67-3.84v-4.16h-.84c-.46,0-.81-.1-1.05-.3-.24-.2-.36-.49-.36-.87s.12-.69.36-.89c.24-.2.59-.3,1.05-.3h.84v-1.64c0-.46.14-.83.43-1.09.29-.27.67-.4,1.17-.4s.88.13,1.16.4c.28.27.42.63.42,1.09v1.64h1.47c.95,0,1.43.4,1.43,1.2,0,.38-.12.67-.36.87s-.59.3-1.07.3h-1.47v4.39c0,.42.1.74.29.96.2.22.48.34.86.37l.59.04c.42.03.73.13.92.31Z"/>
          <path class="cls-17" d="M908.92,773.03c.18.22.26.51.26.86,0,.24-.07.46-.21.66s-.34.38-.59.51c-.48.25-1.03.46-1.66.62s-1.21.24-1.74.24c-1.12,0-2.1-.22-2.93-.65-.83-.43-1.47-1.05-1.92-1.86s-.67-1.75-.67-2.85.22-1.98.65-2.79c.43-.81,1.04-1.45,1.81-1.9.77-.46,1.64-.68,2.62-.68s1.76.21,2.47.62c.71.41,1.26,1,1.65,1.76.39.76.59,1.66.59,2.68,0,.31-.07.54-.22.7-.15.16-.35.24-.62.24h-5.88c.1.83.35,1.42.76,1.79.41.37.99.56,1.74.56.41,0,.77-.05,1.09-.15.32-.1.68-.23,1.07-.4.2-.08.38-.16.57-.22.18-.06.34-.09.48-.09.28,0,.51.11.68.34ZM903.18,767.96c-.36.38-.58.94-.65,1.67h4.05c-.04-.74-.23-1.3-.56-1.68s-.79-.57-1.4-.57-1.08.19-1.45.58Z"/>
          <path class="cls-17" d="M926.45,766.22c.6.68.9,1.79.9,3.33v4.85c0,.49-.15.86-.44,1.11-.29.25-.67.38-1.13.38s-.83-.13-1.13-.38-.46-.62-.46-1.11v-4.89c0-.67-.12-1.14-.35-1.42-.23-.27-.58-.41-1.06-.41-.59,0-1.06.2-1.41.61-.35.41-.52.97-.52,1.7v4.41c0,.49-.15.86-.44,1.11s-.67.38-1.13.38-.83-.13-1.13-.38c-.31-.25-.46-.62-.46-1.11v-4.89c0-.67-.12-1.14-.35-1.42-.23-.27-.58-.41-1.06-.41-.59,0-1.06.2-1.41.61-.35.41-.52.97-.52,1.7v4.41c0,.49-.15.86-.45,1.11s-.68.38-1.12.38-.83-.13-1.13-.38c-.31-.25-.46-.62-.46-1.11v-7.71c0-.46.16-.82.47-1.07.32-.25.7-.38,1.14-.38.42,0,.77.12,1.05.37.28.24.42.58.42,1.02v.21c.34-.53.77-.94,1.31-1.22.54-.28,1.15-.42,1.84-.42.74,0,1.37.15,1.88.45.51.3.91.79,1.19,1.46.32-.59.78-1.05,1.38-1.4s1.27-.51,2.03-.51c1.12,0,1.98.34,2.58,1.02Z"/>
          <path class="cls-17" d="M938.7,773.03c.17.22.26.51.26.86,0,.24-.07.46-.21.66-.14.2-.34.38-.59.51-.48.25-1.03.46-1.66.62s-1.21.24-1.74.24c-1.12,0-2.1-.22-2.93-.65s-1.47-1.05-1.92-1.86c-.45-.81-.67-1.75-.67-2.85s.22-1.98.65-2.79c.43-.81,1.04-1.45,1.81-1.9.77-.46,1.65-.68,2.62-.68s1.76.21,2.47.62c.71.41,1.26,1,1.65,1.76.39.76.59,1.66.59,2.68,0,.31-.07.54-.22.7-.15.16-.35.24-.62.24h-5.88c.1.83.35,1.42.76,1.79.41.37.99.56,1.74.56.41,0,.77-.05,1.09-.15s.68-.23,1.07-.4c.2-.08.38-.16.57-.22.18-.06.34-.09.48-.09.28,0,.51.11.68.34ZM932.96,767.96c-.36.38-.58.94-.65,1.67h4.05c-.04-.74-.23-1.3-.56-1.68s-.79-.57-1.4-.57-1.08.19-1.45.58Z"/>
          <path class="cls-17" d="M950.16,766.28c.6.72.9,1.81.9,3.27v4.85c0,.46-.14.83-.43,1.09-.29.27-.68.4-1.17.4s-.88-.13-1.16-.4c-.28-.27-.42-.63-.42-1.09v-4.7c0-.7-.13-1.21-.39-1.53s-.66-.48-1.21-.48c-.66,0-1.19.21-1.59.63s-.6.98-.6,1.68v4.41c0,.46-.14.83-.42,1.09-.28.27-.67.4-1.16.4s-.88-.13-1.17-.4c-.29-.27-.43-.63-.43-1.09v-7.71c0-.43.15-.78.45-1.05s.69-.4,1.17-.4c.43,0,.79.13,1.06.39.27.26.41.59.41,1v.29c.36-.56.84-.99,1.42-1.28.58-.29,1.24-.44,1.96-.44,1.23,0,2.15.36,2.75,1.08Z"/>
          <path class="cls-17" d="M960.09,773.89c.2.18.29.45.29.8,0,.41-.16.71-.48.92-.32.21-.78.29-1.39.25l-.59-.04c-2.45-.2-3.67-1.48-3.67-3.84v-4.16h-.84c-.46,0-.81-.1-1.05-.3-.24-.2-.36-.49-.36-.87s.12-.69.36-.89c.24-.2.59-.3,1.05-.3h.84v-1.64c0-.46.14-.83.43-1.09.29-.27.67-.4,1.17-.4s.88.13,1.16.4c.28.27.42.63.42,1.09v1.64h1.47c.95,0,1.43.4,1.43,1.2,0,.38-.12.67-.36.87s-.59.3-1.07.3h-1.47v4.39c0,.42.1.74.29.96.2.22.48.34.86.37l.59.04c.42.03.73.13.92.31Z"/>
        </g>
        <path class="cls-17" d="M859.63,717.39h58.73c8.11,0,14.68-6.57,14.68-14.68v-58.73c0-5.41-4.38-9.79-9.79-9.79h-9.79v-9.79c0-2.7-2.19-4.89-4.89-4.89s-4.89,2.19-4.89,4.89v9.79h-29.37v-9.79c0-2.7-2.19-4.89-4.89-4.89s-4.89,2.19-4.89,4.89v9.79h-9.79c-5.41,0-9.79,4.38-9.79,9.79v58.73c0,8.11,6.57,14.68,14.68,14.68ZM854.74,670.89c0-1.35,1.1-2.45,2.45-2.45h63.63c1.35,0,2.45,1.1,2.45,2.45v31.81c0,2.7-2.19,4.89-4.89,4.89h-58.73c-2.7,0-4.89-2.19-4.89-4.89v-31.81Z"/>
      </g>
      <g>
        <g>
          <path class="cls-17" d="M833.61,547.16c-.27-.27-.4-.64-.4-1.13v-11.74c0-.49.13-.87.4-1.13.27-.27.64-.4,1.13-.4h4.22c1.61,0,3,.29,4.16.88s2.05,1.44,2.67,2.54.92,2.43.92,3.97-.3,2.87-.91,3.98c-.61,1.11-1.49,1.96-2.66,2.55s-2.56.88-4.18.88h-4.22c-.49,0-.87-.13-1.13-.4ZM838.73,544.92c3.15,0,4.72-1.59,4.72-4.77s-1.57-4.75-4.72-4.75h-2.25v9.51h2.25Z"/>
          <path class="cls-17" d="M851.06,547.07c-.83-.44-1.46-1.06-1.91-1.87-.45-.8-.67-1.75-.67-2.85s.22-2.04.67-2.85c.45-.8,1.08-1.42,1.91-1.86.83-.43,1.79-.65,2.88-.65s2.05.22,2.88.65c.83.43,1.46,1.05,1.91,1.86.45.81.67,1.75.67,2.85s-.22,2.04-.67,2.85-1.08,1.43-1.91,1.87c-.83.44-1.78.66-2.88.66s-2.05-.22-2.88-.66ZM856.25,542.36c0-.99-.2-1.74-.6-2.23-.4-.49-.97-.73-1.71-.73-1.54,0-2.31.99-2.31,2.96s.77,2.96,2.31,2.96,2.31-.99,2.31-2.96Z"/>
          <path class="cls-17" d="M867.84,547.16c-.27-.27-.4-.64-.4-1.13v-11.76c0-.49.15-.88.44-1.18.29-.29.69-.44,1.2-.44s.9.15,1.2.44c.29.29.44.69.44,1.18v10.63h5.38c1.02,0,1.53.45,1.53,1.34s-.51,1.32-1.53,1.32h-7.12c-.49,0-.87-.13-1.13-.4Z"/>
          <path class="cls-17" d="M887.01,538.1c.73.73,1.09,1.86,1.09,3.37v4.75c0,.46-.13.82-.4,1.08-.27.26-.64.39-1.11.39-.45,0-.81-.14-1.08-.41s-.41-.62-.41-1.06v-.15c-.21.52-.56.92-1.05,1.22-.49.29-1.06.44-1.72.44-.7,0-1.33-.14-1.9-.42-.57-.28-1.02-.67-1.34-1.18-.33-.5-.49-1.06-.49-1.68,0-.76.19-1.35.58-1.79.38-.43,1-.75,1.86-.94.85-.2,2.02-.29,3.51-.29h.55v-.38c0-.59-.13-1.01-.39-1.28-.26-.27-.69-.4-1.29-.4s-1.47.21-2.6.63c-.32.15-.6.23-.82.23-.31,0-.55-.11-.73-.33-.18-.22-.27-.5-.27-.85,0-.28.06-.51.19-.69.13-.18.33-.35.61-.5.49-.27,1.09-.48,1.8-.63.71-.15,1.4-.23,2.09-.23,1.51,0,2.63.37,3.36,1.1ZM884.51,544.93c.38-.41.57-.95.57-1.61v-.36h-.36c-1.13,0-1.93.09-2.38.27-.46.18-.68.51-.68.99,0,.39.13.71.39.96.26.25.58.37.98.37.62,0,1.11-.21,1.49-.62Z"/>
          <path class="cls-17" d="M899.98,537.44c.29.27.43.63.43,1.09v7.71c0,.43-.15.79-.45,1.05s-.69.4-1.17.4c-.45,0-.81-.13-1.07-.38-.27-.25-.4-.59-.4-1.01v-.21c-.32.53-.75.94-1.27,1.22-.52.28-1.12.42-1.77.42-1.3,0-2.27-.36-2.91-1.08-.64-.72-.96-1.81-.96-3.27v-4.85c0-.46.14-.83.43-1.09s.68-.4,1.17-.4.88.13,1.15.4c.28.27.42.63.42,1.09v4.91c0,.62.13,1.07.39,1.37.26.29.65.44,1.19.44.62,0,1.12-.21,1.5-.63.38-.42.58-.97.58-1.66v-4.43c0-.46.14-.83.42-1.09s.67-.4,1.16-.4.88.13,1.17.4Z"/>
          <path class="cls-17" d="M912.06,538.08c.6.72.9,1.81.9,3.27v4.85c0,.46-.14.83-.43,1.09-.29.27-.68.4-1.17.4s-.88-.13-1.16-.4-.42-.63-.42-1.09v-4.7c0-.7-.13-1.21-.39-1.53-.26-.32-.66-.48-1.21-.48-.66,0-1.19.21-1.59.63-.4.42-.6.98-.6,1.68v4.41c0,.46-.14.83-.42,1.09-.28.27-.67.4-1.16.4s-.88-.13-1.17-.4-.43-.63-.43-1.09v-7.71c0-.43.15-.79.45-1.05.3-.27.69-.4,1.17-.4.43,0,.79.13,1.06.39.27.26.41.59.41,1v.29c.36-.56.84-.99,1.42-1.28s1.24-.44,1.96-.44c1.23,0,2.15.36,2.75,1.08Z"/>
          <path class="cls-17" d="M925.33,533.05c.3.27.45.62.45,1.05v12.1c0,.45-.14.81-.43,1.08-.29.27-.67.41-1.14.41s-.86-.14-1.14-.41c-.29-.27-.43-.63-.43-1.08v-.17c-.31.53-.75.95-1.31,1.25-.57.3-1.21.45-1.92.45-.88,0-1.67-.23-2.36-.68s-1.23-1.09-1.62-1.91c-.38-.82-.58-1.76-.58-2.83s.19-2,.58-2.8c.38-.8.92-1.42,1.61-1.86.69-.43,1.48-.65,2.37-.65.7,0,1.33.15,1.9.44.57.29,1,.71,1.31,1.24v-4.64c0-.42.14-.76.42-1.01.28-.25.65-.38,1.11-.38.49,0,.89.13,1.19.4ZM922.03,544.55c.4-.51.6-1.24.6-2.19s-.2-1.68-.6-2.18-.97-.76-1.71-.76-1.32.25-1.72.75-.61,1.21-.61,2.15.2,1.69.61,2.22.98.79,1.72.79,1.31-.26,1.71-.77Z"/>
          <path class="cls-17" d="M935.36,537.33c.25.22.37.54.37.98,0,.46-.11.8-.34,1.03s-.62.36-1.2.42l-.63.06c-.77.08-1.33.34-1.67.76-.34.42-.51.96-.51,1.62v4.01c0,.49-.15.86-.45,1.11-.3.25-.68.38-1.12.38s-.84-.13-1.14-.38-.45-.62-.45-1.11v-7.71c0-.46.15-.82.46-1.07s.68-.38,1.11-.38.77.12,1.05.37.42.58.42,1.02v.57c.25-.6.63-1.06,1.14-1.39s1.07-.5,1.67-.55l.29-.02c.42-.03.75.07,1,.28Z"/>
          <path class="cls-17" d="M944.83,537.29c.23-.14.48-.21.75-.21.41,0,.76.13,1.07.39.31.26.46.57.46.94,0,.2-.05.39-.15.59l-5.65,11.59c-.14.29-.33.51-.57.66-.24.15-.49.22-.76.22-.39,0-.74-.12-1.03-.38s-.44-.56-.44-.92c0-.22.05-.43.15-.63l1.39-2.88-3.74-7.66c-.08-.2-.13-.39-.13-.57,0-.38.17-.7.49-.97.33-.27.7-.4,1.12-.4.28,0,.54.07.78.22.24.15.43.37.57.66l2.6,5.67,2.54-5.67c.13-.29.3-.51.54-.65Z"/>
        </g>
        <path class="cls-17" d="M853,456.35v55.37c0,2.41,2.28,5.35,5.1,5.35h61.33c2.8,0,5.58-2.94,5.58-5.35v-55.37h-72,0ZM888.93,500.29c-10.82,0-19.59-7.54-19.59-16.84s8.77-16.84,19.59-16.84,19.59,7.54,19.59,16.84-8.77,16.84-19.59,16.84ZM919.42,439.94h-61.33c-2.81,0-5.1,1.7-5.1,4.11v9.02h72v-9.02c0-2.42-2.77-4.11-5.58-4.11h0ZM877,449.78h-20.31v-6.56h20.31v6.56ZM912.35,449.32c-2.31,0-4.17-1.61-4.17-3.59s1.86-3.59,4.17-3.59,4.17,1.61,4.17,3.59c0,1.98-1.87,3.59-4.17,3.59Z"/>
      </g>
      <g>
        <g>
          <path class="cls-17" d="M827.56,360.6c-.27-.27-.4-.64-.4-1.13v-11.74c0-.49.13-.87.4-1.13s.64-.4,1.13-.4h4.22c1.61,0,3,.29,4.16.88,1.16.59,2.05,1.44,2.67,2.54s.92,2.43.92,3.97-.3,2.87-.91,3.98c-.61,1.11-1.49,1.96-2.66,2.55-1.16.59-2.56.88-4.18.88h-4.22c-.49,0-.87-.13-1.13-.4ZM832.69,358.35c3.15,0,4.72-1.59,4.72-4.77s-1.57-4.75-4.72-4.75h-2.25v9.51h2.25Z"/>
          <path class="cls-17" d="M845.01,360.51c-.83-.44-1.46-1.06-1.91-1.87-.45-.81-.67-1.75-.67-2.85s.22-2.04.67-2.85c.45-.8,1.08-1.42,1.91-1.86.83-.43,1.79-.65,2.88-.65s2.05.22,2.88.65c.83.43,1.46,1.05,1.91,1.86.45.81.67,1.75.67,2.85s-.22,2.04-.67,2.85-1.08,1.43-1.91,1.87-1.78.66-2.88.66-2.05-.22-2.88-.66ZM850.2,355.79c0-.99-.2-1.74-.6-2.23-.4-.49-.97-.73-1.71-.73-1.54,0-2.31.99-2.31,2.96s.77,2.96,2.31,2.96,2.31-.99,2.31-2.96Z"/>
          <path class="cls-17" d="M873.77,353.16c.23.22.35.51.35.89v4.1c0,.56-.05.99-.14,1.3-.09.31-.25.55-.47.74s-.56.34-1.01.46c-.55.17-1.17.3-1.88.4-.71.1-1.38.15-2.01.15-1.57,0-2.93-.3-4.07-.91-1.15-.61-2.03-1.48-2.65-2.62-.62-1.14-.92-2.5-.92-4.06s.3-2.88.91-4.02c.61-1.14,1.48-2.02,2.61-2.64s2.46-.92,3.97-.92c1.95,0,3.56.5,4.83,1.51.21.17.36.34.44.5s.13.38.13.63c0,.36-.1.68-.3.93-.2.26-.44.39-.72.39-.18,0-.35-.03-.49-.08-.15-.06-.33-.15-.54-.27-.59-.36-1.13-.62-1.62-.78-.49-.15-1.03-.23-1.62-.23-2.86,0-4.28,1.66-4.28,4.98,0,1.71.37,2.98,1.11,3.82.74.84,1.86,1.26,3.36,1.26.81,0,1.62-.1,2.42-.31v-3.25h-1.93c-.41,0-.72-.1-.95-.29-.22-.2-.34-.48-.34-.84s.11-.64.34-.84c.22-.2.54-.29.95-.29h3.59c.39,0,.7.11.93.33Z"/>
          <path class="cls-17" d="M883.79,350.76c.25.22.37.54.37.98,0,.46-.11.81-.34,1.03-.22.22-.62.36-1.2.42l-.63.06c-.77.08-1.33.34-1.67.76-.34.42-.51.96-.51,1.62v4.01c0,.49-.15.86-.45,1.11-.3.25-.68.38-1.12.38s-.84-.13-1.14-.38-.45-.62-.45-1.11v-7.71c0-.46.15-.82.46-1.07s.68-.38,1.11-.38.77.12,1.05.37.42.58.42,1.02v.57c.25-.6.63-1.06,1.14-1.39.51-.32,1.07-.5,1.67-.55l.29-.02c.42-.03.75.07,1,.28Z"/>
          <path class="cls-17" d="M886.93,360.51c-.83-.44-1.46-1.06-1.91-1.87s-.67-1.75-.67-2.85.22-2.04.67-2.85c.45-.8,1.08-1.42,1.91-1.86.83-.43,1.79-.65,2.88-.65s2.05.22,2.88.65c.83.43,1.46,1.05,1.91,1.86.45.81.67,1.75.67,2.85s-.22,2.04-.67,2.85c-.45.81-1.08,1.43-1.91,1.87s-1.79.66-2.88.66-2.05-.22-2.88-.66ZM892.11,355.79c0-.99-.2-1.74-.6-2.23-.4-.49-.97-.73-1.71-.73-1.54,0-2.31.99-2.31,2.96s.77,2.96,2.31,2.96,2.31-.99,2.31-2.96Z"/>
          <path class="cls-17" d="M899.17,360.52c-.8-.43-1.41-1.05-1.84-1.85s-.64-1.74-.64-2.81.23-2.03.68-2.85c.46-.82,1.1-1.45,1.92-1.9.83-.45,1.78-.67,2.86-.67.56,0,1.12.08,1.69.23.57.15,1.08.37,1.52.65.43.27.65.66.65,1.18,0,.36-.08.66-.25.89s-.39.35-.67.35c-.18,0-.35-.03-.51-.09s-.38-.16-.64-.28c-.29-.15-.56-.27-.79-.36-.23-.08-.49-.13-.79-.13-.78,0-1.38.25-1.79.75s-.62,1.22-.62,2.17.21,1.68.62,2.18,1.01.76,1.79.76c.29,0,.55-.04.78-.12s.5-.2.82-.37c.27-.13.48-.22.63-.28.15-.06.32-.09.5-.09.27,0,.49.12.66.36.17.24.26.54.26.9,0,.52-.22.9-.65,1.16-.45.28-.97.5-1.55.65s-1.2.23-1.85.23c-1.06,0-2-.22-2.79-.65Z"/>
          <path class="cls-17" d="M916.53,358.27c.18.22.26.51.26.86,0,.24-.07.46-.21.66-.14.2-.34.37-.59.51-.48.25-1.03.46-1.66.62-.63.16-1.21.24-1.74.24-1.12,0-2.1-.22-2.93-.65-.83-.43-1.47-1.05-1.92-1.86s-.67-1.75-.67-2.85.22-1.98.65-2.79c.43-.81,1.04-1.45,1.81-1.9.77-.46,1.64-.68,2.62-.68s1.76.21,2.47.62c.71.41,1.26,1,1.65,1.76.39.76.59,1.66.59,2.68,0,.31-.07.54-.22.7-.15.16-.35.24-.62.24h-5.88c.1.83.35,1.42.76,1.8.41.37.99.56,1.74.56.41,0,.77-.05,1.09-.15.32-.1.68-.23,1.07-.4.2-.08.38-.16.57-.22.18-.06.34-.09.48-.09.28,0,.51.11.68.34ZM910.78,353.2c-.36.38-.58.94-.65,1.67h4.05c-.04-.74-.23-1.3-.56-1.68s-.79-.57-1.4-.57-1.08.19-1.45.58Z"/>
          <path class="cls-17" d="M925.91,350.76c.24.22.37.54.37.98,0,.46-.11.81-.34,1.03-.22.22-.62.36-1.2.42l-.63.06c-.77.08-1.33.34-1.67.76-.34.42-.51.96-.51,1.62v4.01c0,.49-.15.86-.45,1.11s-.68.38-1.12.38-.84-.13-1.14-.38c-.3-.25-.45-.62-.45-1.11v-7.71c0-.46.15-.82.46-1.07.31-.25.68-.38,1.11-.38s.77.12,1.05.37c.28.25.42.58.42,1.02v.57c.25-.6.63-1.06,1.14-1.39.51-.32,1.07-.5,1.67-.55l.29-.02c.42-.03.75.07,1,.28Z"/>
          <path class="cls-17" d="M927.46,348.37c-.32-.29-.48-.68-.48-1.17s.16-.88.48-1.16c.32-.28.76-.42,1.32-.42s.98.14,1.31.43c.33.29.49.67.49,1.14s-.16.88-.48,1.17c-.32.29-.76.43-1.32.43s-1-.14-1.32-.43ZM927.64,360.75c-.3-.25-.45-.62-.45-1.11v-7.66c0-.49.15-.86.46-1.11.31-.25.69-.38,1.13-.38s.82.13,1.12.38.45.62.45,1.11v7.66c0,.49-.15.86-.45,1.11s-.68.38-1.12.38-.84-.13-1.14-.38Z"/>
          <path class="cls-17" d="M941.75,358.27c.18.22.26.51.26.86,0,.24-.07.46-.21.66-.14.2-.34.37-.59.51-.48.25-1.03.46-1.66.62-.63.16-1.21.24-1.74.24-1.12,0-2.1-.22-2.93-.65-.83-.43-1.47-1.05-1.92-1.86s-.67-1.75-.67-2.85.22-1.98.65-2.79c.43-.81,1.04-1.45,1.81-1.9.77-.46,1.64-.68,2.62-.68s1.76.21,2.47.62c.71.41,1.26,1,1.65,1.76.39.76.59,1.66.59,2.68,0,.31-.07.54-.22.7-.15.16-.35.24-.62.24h-5.88c.1.83.35,1.42.76,1.8.41.37.99.56,1.74.56.41,0,.77-.05,1.09-.15.32-.1.68-.23,1.07-.4.2-.08.38-.16.57-.22.18-.06.34-.09.48-.09.28,0,.51.11.68.34ZM936,353.2c-.36.38-.58.94-.65,1.67h4.05c-.04-.74-.23-1.3-.56-1.68s-.79-.57-1.4-.57-1.08.19-1.45.58Z"/>
          <path class="cls-17" d="M945.66,360.96c-.63-.14-1.18-.36-1.66-.67-.21-.13-.37-.29-.48-.5-.11-.21-.17-.45-.17-.71,0-.32.09-.59.27-.81.18-.22.41-.33.67-.33.18,0,.36.03.55.09s.37.14.57.22c.39.18.78.33,1.15.43.38.1.85.16,1.41.16.49,0,.87-.08,1.14-.23.27-.15.41-.36.41-.63,0-.2-.06-.35-.18-.47-.12-.12-.34-.23-.66-.33-.32-.1-.83-.22-1.53-.36-1.25-.24-2.14-.59-2.69-1.07-.55-.48-.82-1.14-.82-2,0-.63.19-1.2.58-1.7.38-.5.91-.9,1.58-1.19s1.43-.43,2.27-.43c.6,0,1.19.08,1.76.23.57.15,1.08.37,1.53.65.43.27.65.66.65,1.18,0,.34-.09.62-.27.84-.18.22-.41.34-.67.34-.32,0-.71-.13-1.16-.38-.35-.18-.67-.32-.96-.41-.29-.09-.63-.14-1.02-.14-.43,0-.78.08-1.03.24-.25.16-.38.38-.38.66,0,.29.15.52.44.67.29.15.86.31,1.7.46.94.18,1.67.4,2.21.66.53.26.92.58,1.16.98.24.39.36.89.36,1.49,0,.99-.41,1.79-1.23,2.37-.82.59-1.92.88-3.29.88-.85,0-1.6-.07-2.23-.21Z"/>
        </g>
        <g>
          <circle class="cls-17" cx="921.2" cy="323.85" r="7.84"/>
          <circle class="cls-17" cx="864.39" cy="323.85" r="7.84"/>
          <path class="cls-17" d="M927.08,306.21h-61.18l1.31-2.12c.56-.91.72-2.01.46-3.04l-1.28-4.91,56.78-2.95c2.15-.11,3.91-1.97,3.91-4.12v-25.96c0-2.16-1.76-3.92-3.92-3.92h-66.38l-.77-2.94c-.45-1.73-2.01-2.93-3.79-2.93h-13.31c-2.16,0-3.92,1.76-3.92,3.92s1.76,3.92,3.92,3.92h10.28l10.46,40.25-4.11,6.67c-.74,1.21-.78,2.73-.08,3.97.69,1.24,2,2.01,3.42,2.01h68.2c2.16,0,3.92-1.76,3.92-3.92s-1.76-3.92-3.92-3.92h0Z"/>
        </g>
      </g>
    </g>
    <g>
      <g class="cls-15">
        <rect class="cls-16" x="1158.5" y="42" width="233" height="778" rx="82" ry="82"/>
      </g>
      <rect class="cls-16" x="1158.5" width="233" height="233" rx="82" ry="82"/>
      <g>
        <g id="Page-1-7" data-name="Page-1">
          <g id="Icon-Set-Filled-7" data-name="Icon-Set-Filled">
            <path id="spoon-7" data-name="spoon" class="cls-6" d="M1166.22,103.47c-6.49,16.57,3.82,36.1,23.03,43.63,15.78,6.18,32.88,2.48,42.06-8.24l89.51,35.08c4.8,1.88,10.19-.43,12.05-5.16h0c1.85-4.74-.54-10.1-5.34-11.98l-89.51-35.08c.55-14.1-9.49-28.44-25.26-34.62-19.21-7.53-40.05-.2-46.54,16.37h0Z"/>
          </g>
        </g>
        <g id="Page-1-8" data-name="Page-1">
          <g id="Icon-Set-Filled-8" data-name="Icon-Set-Filled">
            <path id="spoon-8" data-name="spoon" class="cls-6" d="M1381.75,111.52c-5.24-17.01-25.48-25.86-45.19-19.79-16.19,4.99-27.27,18.54-27.77,32.64l-91.87,28.32c-4.93,1.52-7.71,6.69-6.21,11.54h0c1.5,4.86,6.71,7.57,11.64,6.05l91.87-28.32c8.35,11.37,25.13,16.34,41.33,11.34,19.72-6.08,31.45-24.79,26.21-41.8h0Z"/>
          </g>
        </g>
        <g id="Page-1-9" data-name="Page-1">
          <g id="Icon-Set-Filled-9" data-name="Icon-Set-Filled">
            <path id="spoon-9" data-name="spoon" class="cls-6" d="M1227.81,35.07c-16.31,7.12-22.83,28.23-14.57,47.13,6.79,15.53,21.5,25.01,35.56,23.91l38.49,88.1c2.06,4.72,7.51,6.9,12.17,4.87h0c4.65-2.04,6.76-7.52,4.69-12.25l-38.49-88.1c10.36-9.58,13.4-26.81,6.61-42.34-8.26-18.91-28.18-28.46-44.48-21.33h0Z"/>
          </g>
        </g>
        <g id="Page-1-10" data-name="Page-1">
          <g id="Icon-Set-Filled-10" data-name="Icon-Set-Filled">
            <path id="spoon-10" data-name="spoon" class="cls-6" d="M1321.53,35.19c-16.31-7.12-36.22,2.43-44.48,21.33-6.79,15.53-3.74,32.76,6.61,42.34l-38.49,88.1c-2.06,4.72.04,10.2,4.69,12.24h0c4.66,2.03,10.11-.15,12.17-4.87l38.49-88.1c14.07,1.09,28.78-8.39,35.56-23.91,8.26-18.91,1.74-40.01-14.57-47.13h0Z"/>
          </g>
        </g>
      </g>
      <g>
        <g>
          <path class="cls-10" d="M1236.04,750.36c-.95-.26-1.73-.63-2.33-1.1-.21-.15-.36-.32-.45-.49-.09-.17-.14-.4-.14-.66,0-.35.11-.66.33-.92.22-.27.47-.4.75-.4.15,0,.3.02.45.07.15.05.33.14.54.26.6.38,1.21.65,1.83.83.62.18,1.29.26,2.04.26.92,0,1.63-.15,2.12-.46.49-.31.74-.75.74-1.32,0-.43-.23-.78-.68-1.05-.46-.27-1.26-.52-2.43-.76-1.3-.27-2.34-.59-3.12-.97-.78-.38-1.34-.85-1.7-1.41-.36-.56-.54-1.24-.54-2.04,0-.88.26-1.68.77-2.38.51-.71,1.22-1.26,2.12-1.66.9-.4,1.92-.6,3.06-.6,1.99,0,3.63.5,4.91,1.49.21.17.36.34.45.52.09.17.14.39.14.64,0,.35-.11.66-.33.92-.22.27-.47.4-.75.4-.15,0-.3-.02-.43-.06-.13-.04-.32-.13-.56-.27-.57-.36-1.1-.64-1.59-.82-.48-.18-1.1-.27-1.84-.27-.85,0-1.53.16-2.02.49s-.73.78-.73,1.35c0,.34.09.61.28.83.19.22.5.41.95.58.44.17,1.07.34,1.88.53,1.9.42,3.27.96,4.11,1.62s1.25,1.56,1.25,2.71c0,.9-.25,1.69-.75,2.37s-1.2,1.22-2.1,1.6c-.9.38-1.95.57-3.14.57-1.11,0-2.13-.13-3.09-.39Z"/>
          <path class="cls-10" d="M1249.29,750.07c-.83-.44-1.46-1.06-1.91-1.87-.45-.8-.67-1.75-.67-2.85s.22-2.04.67-2.85c.45-.8,1.08-1.42,1.91-1.86s1.79-.65,2.88-.65,2.05.22,2.88.65,1.46,1.05,1.91,1.86c.45.81.67,1.75.67,2.85s-.22,2.04-.67,2.85c-.45.81-1.08,1.43-1.91,1.87s-1.79.66-2.88.66-2.05-.22-2.88-.66ZM1254.48,745.36c0-.99-.2-1.74-.6-2.23-.4-.49-.97-.74-1.71-.74-1.54,0-2.31.99-2.31,2.96s.77,2.96,2.31,2.96,2.31-.99,2.31-2.96Z"/>
          <path class="cls-10" d="M1261.54,750.08c-.8-.43-1.41-1.05-1.84-1.85-.43-.8-.64-1.74-.64-2.81s.23-2.03.68-2.85c.45-.82,1.09-1.45,1.92-1.9s1.78-.67,2.86-.67c.56,0,1.12.08,1.69.23s1.07.37,1.52.65c.43.27.65.66.65,1.18,0,.37-.08.66-.25.89-.17.23-.39.35-.67.35-.18,0-.35-.03-.51-.09-.16-.06-.38-.16-.64-.28-.29-.15-.56-.27-.79-.36-.23-.08-.49-.12-.79-.12-.78,0-1.38.25-1.8.75s-.62,1.22-.62,2.17.21,1.68.62,2.18,1.01.76,1.8.76c.29,0,.55-.04.78-.12.22-.08.5-.2.82-.37.27-.12.48-.22.63-.28s.32-.09.5-.09c.27,0,.49.12.66.36.17.24.26.54.26.9,0,.52-.22.9-.65,1.15-.45.28-.97.5-1.55.65s-1.2.23-1.85.23c-1.06,0-1.99-.22-2.79-.65Z"/>
          <path class="cls-10" d="M1270.21,737.93c-.32-.29-.48-.67-.48-1.17s.16-.88.48-1.16c.32-.28.76-.42,1.32-.42s.98.14,1.31.43.49.67.49,1.14-.16.88-.48,1.17-.76.43-1.32.43-1-.14-1.32-.43ZM1270.39,750.31c-.3-.25-.45-.62-.45-1.11v-7.67c0-.49.15-.86.46-1.11s.69-.38,1.13-.38.82.13,1.12.38c.3.25.45.62.45,1.11v7.67c0,.49-.15.86-.45,1.11-.3.25-.68.38-1.12.38s-.84-.12-1.14-.38Z"/>
          <path class="cls-10" d="M1283.54,741.1c.73.73,1.09,1.86,1.09,3.37v4.75c0,.46-.13.82-.4,1.08-.27.26-.64.39-1.11.39-.45,0-.81-.14-1.08-.41s-.41-.63-.41-1.06v-.15c-.21.52-.56.92-1.05,1.22s-1.06.44-1.72.44c-.7,0-1.33-.14-1.9-.42-.57-.28-1.02-.67-1.34-1.18-.33-.5-.49-1.06-.49-1.68,0-.76.19-1.35.58-1.79.38-.43,1-.75,1.86-.94.85-.2,2.02-.29,3.51-.29h.55v-.38c0-.59-.13-1.02-.39-1.28s-.69-.4-1.29-.4-1.47.21-2.6.63c-.32.15-.59.23-.82.23-.31,0-.55-.11-.74-.32-.18-.22-.27-.5-.27-.85,0-.28.06-.51.19-.69.13-.18.33-.35.61-.5.49-.27,1.09-.47,1.79-.63s1.4-.23,2.09-.23c1.51,0,2.63.37,3.36,1.1ZM1281.04,747.93c.38-.41.57-.95.57-1.61v-.36h-.36c-1.13,0-1.93.09-2.38.27s-.68.51-.68.99c0,.39.13.71.39.96.26.25.58.37.98.37.62,0,1.11-.21,1.49-.62Z"/>
          <path class="cls-10" d="M1287.46,750.31c-.3-.25-.45-.62-.45-1.11v-12.05c0-.49.15-.86.45-1.11.3-.25.68-.38,1.14-.38s.82.12,1.12.38c.3.25.45.62.45,1.11v12.05c0,.49-.15.86-.45,1.11s-.68.38-1.12.38-.84-.12-1.14-.38Z"/>
          <path class="cls-10" d="M1292.89,737.93c-.32-.29-.48-.67-.48-1.17s.16-.88.48-1.16c.32-.28.76-.42,1.32-.42s.98.14,1.31.43.49.67.49,1.14-.16.88-.48,1.17-.76.43-1.32.43-1-.14-1.32-.43ZM1293.07,750.31c-.3-.25-.45-.62-.45-1.11v-7.67c0-.49.15-.86.46-1.11s.69-.38,1.13-.38.82.13,1.12.38c.3.25.45.62.45,1.11v7.67c0,.49-.15.86-.45,1.11-.3.25-.68.38-1.12.38s-.84-.12-1.14-.38Z"/>
          <path class="cls-10" d="M1307.4,749.39c0,.78-.48,1.18-1.43,1.18h-6.8c-.42,0-.76-.13-1.03-.4s-.4-.58-.4-.95c0-.42.15-.78.44-1.09l4.91-5.5h-4.03c-.95,0-1.43-.39-1.43-1.18s.48-1.2,1.43-1.2h6.55c.43,0,.78.13,1.04.4s.39.59.39.97c0,.42-.15.78-.44,1.09l-4.89,5.48h4.26c.95,0,1.43.4,1.43,1.2Z"/>
          <path class="cls-10" d="M1317.66,747.83c.17.22.26.51.26.86,0,.24-.07.46-.21.66-.14.2-.34.37-.59.51-.48.25-1.03.46-1.66.62-.63.16-1.21.24-1.74.24-1.12,0-2.1-.22-2.93-.65s-1.47-1.05-1.92-1.86c-.45-.8-.67-1.75-.67-2.85s.22-1.98.65-2.79c.43-.81,1.04-1.45,1.81-1.9.77-.46,1.65-.68,2.62-.68s1.76.21,2.47.62c.71.41,1.26,1,1.65,1.76.39.76.59,1.66.59,2.68,0,.31-.07.54-.22.7-.15.16-.35.24-.62.24h-5.88c.1.83.35,1.42.76,1.8s.99.56,1.74.56c.41,0,.77-.05,1.09-.15.32-.1.68-.23,1.07-.4.2-.08.38-.16.57-.22.18-.06.34-.09.48-.09.28,0,.51.11.68.34ZM1311.91,742.76c-.36.38-.58.94-.65,1.67h4.05c-.04-.74-.23-1.3-.56-1.68s-.79-.57-1.4-.57-1.08.19-1.45.58Z"/>
        </g>
        <g>
          <path class="cls-8" d="M1314.65,713.03c7.35-4.01,11.77-9.15,11.77-14.76,0-5.94-4.96-11.36-13.13-15.47-9.44-4.75-23.16-7.73-38.42-7.73s-28.99,2.99-38.42,7.73c-8.16,4.1-13.13,9.52-13.13,15.47s4.96,11.36,13.13,15.47c9.44,4.75,23.16,7.73,38.42,7.73,16.01,0,30.32-3.29,39.78-8.44Z"/>
          <path class="cls-4" d="M1260.69,628.68c0-7.83,6.35-14.18,14.18-14.18s14.18,6.35,14.18,14.18-6.35,14.18-14.18,14.18-14.18-6.35-14.18-14.18Z"/>
          <path class="cls-10" d="M1255.4,667.72l-11.21-3.74c-3.23-1.08-5.4-4.09-5.4-7.49,0-5.03,4.64-8.78,9.55-7.72l9.78,2.1c.54.12.82.17,1.09.23,10.33,2.14,20.99,2.14,31.33,0,.27-.06.54-.11,1.09-.23l9.78-2.1c4.92-1.05,9.55,2.7,9.55,7.72,0,3.4-2.18,6.42-5.4,7.49l-11.21,3.74c-1.36.45-2.03.68-2.54.99-1.74,1.07-2.68,3.06-2.4,5.08.08.59.34,1.26.85,2.59l6.43,16.71c1.91,4.97-1.76,10.32-7.09,10.32-2.72,0-5.24-1.46-6.59-3.83l-8.12-14.22-8.12,14.22c-1.35,2.37-3.87,3.83-6.59,3.83-5.33,0-9-5.35-7.09-10.32l6.43-16.71c.51-1.33.77-2,.85-2.59.28-2.02-.66-4.01-2.4-5.08-.51-.31-1.19-.54-2.54-.99Z"/>
        </g>
      </g>
      <g>
        <g>
          <path class="cls-10" d="M1206,563.16c-.27-.27-.4-.64-.4-1.13v-11.74c0-.49.13-.87.4-1.13.27-.27.64-.4,1.13-.4h4.22c1.61,0,3,.29,4.16.88s2.05,1.44,2.67,2.54.92,2.43.92,3.97-.3,2.87-.91,3.98c-.61,1.11-1.49,1.96-2.66,2.55s-2.56.88-4.18.88h-4.22c-.49,0-.87-.13-1.13-.4ZM1211.12,560.92c3.15,0,4.72-1.59,4.72-4.77s-1.57-4.75-4.72-4.75h-2.25v9.51h2.25Z"/>
          <path class="cls-10" d="M1223.45,563.07c-.83-.44-1.46-1.06-1.91-1.87-.45-.8-.67-1.75-.67-2.85s.22-2.04.67-2.85c.45-.8,1.08-1.42,1.91-1.86.83-.43,1.79-.65,2.88-.65s2.05.22,2.88.65c.83.43,1.46,1.05,1.91,1.86.45.81.67,1.75.67,2.85s-.22,2.04-.67,2.85-1.08,1.43-1.91,1.87c-.83.44-1.78.66-2.88.66s-2.05-.22-2.88-.66ZM1228.64,558.36c0-.99-.2-1.74-.6-2.23-.4-.49-.97-.73-1.71-.73-1.54,0-2.31.99-2.31,2.96s.77,2.96,2.31,2.96,2.31-.99,2.31-2.96Z"/>
          <path class="cls-10" d="M1252.64,549.09c.29.29.44.69.44,1.18v11.78c0,.49-.15.89-.44,1.19s-.69.45-1.18.45-.88-.15-1.17-.44c-.29-.29-.43-.69-.43-1.2v-4.7h-6.82v4.7c0,.49-.15.89-.44,1.19s-.68.45-1.16.45-.88-.15-1.18-.44c-.29-.29-.44-.69-.44-1.2v-11.78c0-.49.15-.88.44-1.18.29-.29.69-.44,1.18-.44s.88.15,1.17.44c.29.29.43.69.43,1.18v4.47h6.82v-4.47c0-.49.14-.88.43-1.18.29-.29.68-.44,1.17-.44s.88.15,1.18.44Z"/>
          <path class="cls-10" d="M1257.85,563.07c-.83-.44-1.46-1.06-1.91-1.87s-.67-1.75-.67-2.85.22-2.04.67-2.85c.45-.8,1.08-1.42,1.91-1.86.83-.43,1.79-.65,2.88-.65s2.05.22,2.88.65c.83.43,1.46,1.05,1.91,1.86.45.81.67,1.75.67,2.85s-.22,2.04-.67,2.85c-.45.8-1.08,1.43-1.91,1.87-.83.44-1.79.66-2.88.66s-2.05-.22-2.88-.66ZM1263.04,558.36c0-.99-.2-1.74-.6-2.23-.4-.49-.97-.73-1.71-.73-1.54,0-2.31.99-2.31,2.96s.77,2.96,2.31,2.96,2.31-.99,2.31-2.96Z"/>
          <path class="cls-10" d="M1283.41,554.02c.6.68.9,1.79.9,3.33v4.85c0,.49-.15.86-.44,1.11-.29.25-.67.38-1.13.38s-.83-.13-1.13-.38-.46-.62-.46-1.11v-4.89c0-.67-.12-1.14-.35-1.42-.23-.27-.58-.41-1.06-.41-.59,0-1.06.2-1.41.61-.35.41-.52.97-.52,1.7v4.41c0,.49-.15.86-.44,1.11s-.67.38-1.13.38-.83-.13-1.13-.38c-.31-.25-.46-.62-.46-1.11v-4.89c0-.67-.12-1.14-.35-1.42-.23-.27-.58-.41-1.06-.41-.59,0-1.06.2-1.41.61s-.52.97-.52,1.7v4.41c0,.49-.15.86-.45,1.11s-.68.38-1.12.38-.83-.13-1.13-.38c-.31-.25-.46-.62-.46-1.11v-7.71c0-.46.16-.82.47-1.07.32-.25.7-.38,1.14-.38.42,0,.77.12,1.05.37.28.25.42.58.42,1.02v.21c.34-.53.77-.94,1.31-1.22.54-.28,1.15-.42,1.84-.42.74,0,1.37.15,1.88.45.51.3.91.79,1.19,1.46.32-.59.78-1.05,1.38-1.4.59-.34,1.27-.52,2.03-.52,1.12,0,1.98.34,2.58,1.02Z"/>
          <path class="cls-10" d="M1295.66,560.83c.18.22.26.51.26.86,0,.24-.07.46-.21.66-.14.2-.34.38-.59.52-.48.25-1.03.46-1.66.62-.63.16-1.21.24-1.74.24-1.12,0-2.1-.22-2.93-.65-.83-.43-1.47-1.05-1.92-1.86-.45-.81-.67-1.75-.67-2.85s.22-1.98.65-2.79c.43-.81,1.04-1.45,1.81-1.9.77-.46,1.64-.68,2.62-.68s1.76.21,2.47.62c.71.41,1.26,1,1.65,1.76.39.76.59,1.66.59,2.68,0,.31-.07.54-.22.7-.15.16-.35.24-.62.24h-5.88c.1.83.35,1.43.76,1.8.41.37.99.56,1.74.56.41,0,.77-.05,1.09-.15.32-.1.68-.23,1.07-.4.2-.08.38-.16.57-.22.18-.06.34-.09.48-.09.28,0,.51.11.68.34ZM1289.92,555.76c-.36.38-.58.94-.65,1.67h4.05c-.04-.74-.23-1.3-.56-1.68-.33-.38-.79-.57-1.4-.57s-1.08.19-1.45.58Z"/>
          <path class="cls-10" d="M1312.07,553.29c.22-.15.46-.23.71-.23.39,0,.74.13,1.05.4s.46.59.46.99c0,.17-.04.36-.13.57l-3.44,7.73c-.13.31-.33.54-.61.7-.28.16-.57.24-.88.24s-.62-.08-.89-.24c-.27-.16-.47-.39-.6-.7l-2.25-5.23-2.16,5.23c-.13.31-.32.54-.59.7-.27.16-.57.24-.9.24s-.62-.08-.9-.24c-.28-.16-.48-.39-.61-.7l-3.42-7.73c-.08-.2-.13-.39-.13-.57,0-.39.16-.72.49-.99s.7-.4,1.12-.4c.28,0,.54.08.77.23.23.15.41.38.54.67l2.25,5.65,2.29-5.61c.13-.29.31-.52.56-.68.24-.16.51-.24.81-.24s.57.08.82.23c.25.15.44.39.57.69l2.33,5.61,2.23-5.65c.13-.29.3-.52.53-.67Z"/>
          <path class="cls-10" d="M1317.68,563.07c-.83-.44-1.46-1.06-1.91-1.87-.45-.8-.67-1.75-.67-2.85s.22-2.04.67-2.85c.45-.8,1.08-1.42,1.91-1.86.83-.43,1.79-.65,2.88-.65s2.05.22,2.88.65c.83.43,1.46,1.05,1.91,1.86.45.81.67,1.75.67,2.85s-.22,2.04-.67,2.85-1.08,1.43-1.91,1.87c-.83.44-1.78.66-2.88.66s-2.05-.22-2.88-.66ZM1322.87,558.36c0-.99-.2-1.74-.6-2.23-.4-.49-.97-.73-1.71-.73-1.54,0-2.31.99-2.31,2.96s.77,2.96,2.31,2.96,2.31-.99,2.31-2.96Z"/>
          <path class="cls-10" d="M1335.1,553.33c.25.22.37.54.37.98,0,.46-.11.8-.34,1.03s-.62.36-1.2.42l-.63.06c-.77.08-1.33.34-1.67.76-.34.42-.51.96-.51,1.62v4.01c0,.49-.15.86-.45,1.11-.3.25-.68.38-1.12.38s-.84-.13-1.14-.38-.45-.62-.45-1.11v-7.71c0-.46.15-.82.46-1.07s.68-.38,1.11-.38.77.12,1.05.37.42.58.42,1.02v.57c.25-.6.63-1.06,1.14-1.39s1.07-.5,1.67-.55l.29-.02c.42-.03.75.07,1,.28Z"/>
          <path class="cls-10" d="M1346.57,562.16c0,.39-.14.74-.43,1.05-.29.31-.62.46-1,.46s-.7-.15-1.01-.44l-4.6-4.26v3.21c0,.49-.15.86-.45,1.11s-.68.38-1.12.38-.84-.12-1.14-.38c-.3-.25-.45-.62-.45-1.11v-12.03c0-.49.15-.86.45-1.11.3-.25.68-.38,1.14-.38s.82.13,1.12.38.45.62.45,1.11v7.52l4.2-4.14c.31-.31.65-.46,1.03-.46s.74.14,1.03.43.44.63.44,1.02c0,.36-.16.71-.48,1.03l-2.79,2.67,3.13,2.9c.32.31.48.66.48,1.05Z"/>
        </g>
        <g id="_xD83D__xDD0D_-Product-Icons">
          <g id="ic_fluent_assignments_24_filled">
            <path id="_xD83C__xDFA8_-Color" class="cls-10" d="M1268.61,435.5h12.55c5.96,0,10.85,4.63,11.24,10.5l.03.77v1.25s6.22,0,6.22,0c8.99,0,16.28,7.29,16.28,16.28v60.12c0,6.22-5.04,11.27-11.27,11.27h-57.57c-6.22,0-11.27-5.04-11.27-11.27v-60.12c0-8.99,7.29-16.28,16.28-16.28h6.24v-1.25c0-5.96,4.64-10.85,10.5-11.24l.77-.03ZM1291.16,493.09h-32.54c-4.6,0-8.37,3.54-8.73,8.05l-.03.72v10c0,4.6,3.54,8.37,8.05,8.73l.72.03h32.54c4.6,0,8.37-3.54,8.73-8.05l.03-.72v-10c0-4.6-3.54-8.37-8.05-8.73l-.72-.03ZM1258.62,500.6h32.54c.59,0,1.09.41,1.22.96l.03.29v10c0,.59-.41,1.09-.96,1.22l-.29.03h-32.54c-.59,0-1.09-.41-1.22-.96l-.03-.29v-10c0-.59.41-1.09.96-1.22l.29-.03h32.54-32.54ZM1281.14,473.06h-12.52l-.51.03c-1.83.25-3.25,1.82-3.25,3.72s1.41,3.47,3.25,3.72l.51.03h12.52l.51-.03c1.83-.25,3.25-1.82,3.25-3.72s-1.41-3.47-3.25-3.72l-.51-.03ZM1281.16,443.01h-12.55c-1.9,0-3.47,1.41-3.72,3.25l-.03.51v1.25s20.06,0,20.06,0v-1.25c0-1.9-1.41-3.47-3.25-3.72l-.51-.03Z"/>
          </g>
        </g>
      </g>
      <g>
        <g>
          <path class="cls-10" d="M1180.55,360.6c-.27-.27-.4-.64-.4-1.13v-11.74c0-.49.13-.87.4-1.13s.64-.4,1.13-.4h4.22c1.61,0,3,.29,4.16.88,1.16.59,2.05,1.44,2.67,2.54s.92,2.43.92,3.97-.3,2.87-.91,3.98c-.61,1.11-1.49,1.96-2.66,2.55-1.16.59-2.56.88-4.18.88h-4.22c-.49,0-.87-.13-1.13-.4ZM1185.67,358.35c3.15,0,4.72-1.59,4.72-4.77s-1.57-4.75-4.72-4.75h-2.25v9.51h2.25Z"/>
          <path class="cls-10" d="M1204.88,358.27c.17.22.26.51.26.86,0,.24-.07.46-.21.66-.14.2-.34.37-.59.51-.48.25-1.03.46-1.66.62-.63.16-1.21.24-1.74.24-1.12,0-2.1-.22-2.93-.65s-1.47-1.05-1.92-1.86c-.45-.81-.67-1.75-.67-2.85s.22-1.98.65-2.79c.43-.81,1.04-1.45,1.81-1.9.77-.46,1.65-.68,2.62-.68s1.76.21,2.47.62,1.26,1,1.65,1.76c.39.76.59,1.66.59,2.68,0,.31-.07.54-.22.7-.15.16-.35.24-.62.24h-5.88c.1.83.35,1.42.76,1.8.41.37.99.56,1.74.56.41,0,.77-.05,1.09-.15.32-.1.68-.23,1.07-.4.2-.08.38-.16.57-.22.18-.06.34-.09.48-.09.28,0,.51.11.68.34ZM1199.13,353.2c-.36.38-.58.94-.65,1.67h4.05c-.04-.74-.23-1.3-.56-1.68s-.79-.57-1.4-.57-1.08.19-1.45.58Z"/>
          <path class="cls-10" d="M1216.07,358.27c.18.22.26.51.26.86,0,.24-.07.46-.21.66-.14.2-.34.37-.59.51-.48.25-1.03.46-1.66.62-.63.16-1.21.24-1.74.24-1.12,0-2.1-.22-2.93-.65-.83-.43-1.47-1.05-1.92-1.86s-.67-1.75-.67-2.85.22-1.98.65-2.79c.43-.81,1.04-1.45,1.81-1.9.77-.46,1.64-.68,2.62-.68s1.76.21,2.47.62c.71.41,1.26,1,1.65,1.76.39.76.59,1.66.59,2.68,0,.31-.07.54-.22.7-.15.16-.35.24-.62.24h-5.88c.1.83.35,1.42.76,1.8.41.37.99.56,1.74.56.41,0,.77-.05,1.09-.15.32-.1.68-.23,1.07-.4.2-.08.38-.16.57-.22.18-.06.34-.09.48-.09.28,0,.51.11.68.34ZM1210.33,353.2c-.36.38-.58.94-.65,1.67h4.05c-.04-.74-.23-1.3-.56-1.68s-.79-.57-1.4-.57-1.08.19-1.45.58Z"/>
          <path class="cls-10" d="M1227.05,351.12c.69.46,1.23,1.09,1.62,1.91.38.82.58,1.76.58,2.82s-.19,2-.58,2.8c-.39.81-.92,1.42-1.61,1.86-.69.43-1.48.65-2.37.65-.7,0-1.33-.14-1.9-.43-.57-.29-1-.69-1.31-1.21v3.97c0,.42-.14.76-.42,1.01-.28.25-.65.38-1.11.38-.49,0-.89-.13-1.19-.4-.3-.27-.45-.62-.45-1.05v-11.47c0-.45.14-.81.43-1.08s.67-.41,1.14-.41.85.14,1.13.41c.28.27.42.63.42,1.08v.17c.31-.53.75-.95,1.32-1.25s1.22-.45,1.93-.45c.88,0,1.67.23,2.36.68ZM1225.49,358.01c.41-.5.61-1.21.61-2.15s-.2-1.69-.61-2.22c-.41-.53-.98-.79-1.72-.79s-1.32.26-1.72.77-.61,1.24-.61,2.19.2,1.66.61,2.17c.41.51.98.77,1.72.77s1.32-.25,1.72-.75Z"/>
          <path class="cls-10" d="M1240.27,360.27c-1.09-.62-1.93-1.5-2.52-2.65s-.88-2.49-.88-4.03.29-2.88.88-4.02c.59-1.14,1.43-2.02,2.52-2.64,1.09-.62,2.37-.92,3.82-.92,1.83,0,3.42.5,4.75,1.51.21.17.36.34.44.5s.13.38.13.63c0,.36-.1.68-.3.93-.2.26-.45.39-.75.39-.2,0-.37-.02-.51-.07-.15-.05-.31-.14-.49-.26-.56-.36-1.08-.63-1.55-.79-.48-.16-.99-.24-1.53-.24-1.34,0-2.36.42-3.03,1.25-.68.83-1.02,2.08-1.02,3.73,0,3.33,1.35,5,4.05,5,.52,0,1.01-.08,1.47-.24.46-.16,1-.42,1.62-.79.21-.13.39-.21.53-.26.14-.05.3-.07.48-.07.29,0,.54.13.75.39.2.26.3.57.3.93,0,.25-.05.47-.14.64-.09.18-.23.34-.43.49-1.33,1.01-2.91,1.51-4.75,1.51-1.46,0-2.73-.31-3.82-.92Z"/>
          <path class="cls-10" d="M1251.73,360.75c-.3-.25-.45-.62-.45-1.11v-12.05c0-.49.15-.86.45-1.11.3-.25.68-.38,1.14-.38s.82.13,1.12.38c.3.25.45.62.45,1.11v12.05c0,.49-.15.86-.45,1.11s-.68.38-1.12.38-.84-.13-1.14-.38Z"/>
          <path class="cls-10" d="M1265.84,358.27c.18.22.26.51.26.86,0,.24-.07.46-.21.66-.14.2-.34.37-.59.51-.48.25-1.03.46-1.66.62-.63.16-1.21.24-1.74.24-1.12,0-2.1-.22-2.93-.65-.83-.43-1.47-1.05-1.92-1.86s-.67-1.75-.67-2.85.22-1.98.65-2.79c.43-.81,1.04-1.45,1.81-1.9.77-.46,1.64-.68,2.62-.68s1.76.21,2.47.62c.71.41,1.26,1,1.65,1.76.39.76.59,1.66.59,2.68,0,.31-.07.54-.22.7-.15.16-.35.24-.62.24h-5.88c.1.83.35,1.42.76,1.8.41.37.99.56,1.74.56.41,0,.77-.05,1.09-.15.32-.1.68-.23,1.07-.4.2-.08.38-.16.57-.22.18-.06.34-.09.48-.09.28,0,.51.11.68.34ZM1260.1,353.2c-.36.38-.58.94-.65,1.67h4.05c-.04-.74-.23-1.3-.56-1.68s-.79-.57-1.4-.57-1.08.19-1.45.58Z"/>
          <path class="cls-10" d="M1276.08,351.54c.73.73,1.09,1.86,1.09,3.37v4.75c0,.46-.13.82-.4,1.08-.27.26-.64.39-1.11.39-.45,0-.81-.14-1.08-.41s-.41-.63-.41-1.06v-.15c-.21.52-.56.92-1.05,1.22s-1.06.44-1.72.44c-.7,0-1.33-.14-1.9-.42s-1.02-.67-1.34-1.18c-.33-.5-.49-1.06-.49-1.68,0-.76.19-1.35.58-1.79.38-.43,1-.75,1.86-.94.85-.2,2.02-.29,3.51-.29h.55v-.38c0-.59-.13-1.02-.39-1.28-.26-.27-.69-.4-1.29-.4s-1.47.21-2.6.63c-.32.15-.59.23-.82.23-.31,0-.55-.11-.74-.33-.18-.22-.27-.5-.27-.85,0-.28.06-.51.19-.69.13-.18.33-.35.61-.5.49-.27,1.09-.48,1.79-.63.71-.15,1.4-.23,2.09-.23,1.51,0,2.63.37,3.36,1.1ZM1273.58,358.36c.38-.41.57-.95.57-1.61v-.36h-.36c-1.13,0-1.93.09-2.38.27-.46.18-.68.51-.68.99,0,.39.13.71.39.96.26.25.58.37.98.37.62,0,1.11-.21,1.49-.62Z"/>
          <path class="cls-10" d="M1288.76,351.52c.6.72.9,1.81.9,3.27v4.85c0,.46-.14.83-.43,1.09-.29.27-.68.4-1.17.4s-.88-.13-1.16-.4c-.28-.27-.42-.63-.42-1.09v-4.7c0-.7-.13-1.21-.39-1.53-.26-.32-.66-.48-1.21-.48-.66,0-1.19.21-1.59.63s-.6.98-.6,1.68v4.41c0,.46-.14.83-.42,1.09-.28.27-.67.4-1.16.4s-.88-.13-1.17-.4c-.29-.27-.43-.63-.43-1.09v-7.71c0-.43.15-.78.45-1.05.3-.27.69-.4,1.17-.4.43,0,.79.13,1.06.39.27.26.41.59.41,1v.29c.36-.56.84-.99,1.42-1.28.58-.29,1.24-.44,1.96-.44,1.23,0,2.15.36,2.75,1.08Z"/>
          <path class="cls-10" d="M1305.9,351.54c.73.73,1.09,1.86,1.09,3.37v4.75c0,.46-.13.82-.4,1.08-.27.26-.64.39-1.11.39-.45,0-.81-.14-1.08-.41-.27-.27-.41-.63-.41-1.06v-.15c-.21.52-.56.92-1.05,1.22s-1.06.44-1.72.44c-.7,0-1.33-.14-1.9-.42-.57-.28-1.02-.67-1.34-1.18-.33-.5-.49-1.06-.49-1.68,0-.76.19-1.35.58-1.79.38-.43,1-.75,1.86-.94.85-.2,2.02-.29,3.51-.29h.55v-.38c0-.59-.13-1.02-.39-1.28-.26-.27-.69-.4-1.29-.4s-1.47.21-2.6.63c-.32.15-.6.23-.82.23-.31,0-.55-.11-.73-.33-.18-.22-.27-.5-.27-.85,0-.28.06-.51.19-.69.13-.18.33-.35.61-.5.49-.27,1.09-.48,1.8-.63.71-.15,1.4-.23,2.09-.23,1.51,0,2.63.37,3.36,1.1ZM1303.4,358.36c.38-.41.57-.95.57-1.61v-.36h-.36c-1.13,0-1.93.09-2.38.27-.46.18-.68.51-.68.99,0,.39.13.71.39.96s.58.37.98.37c.62,0,1.11-.21,1.49-.62Z"/>
          <path class="cls-10" d="M1327.92,359.82c0,.39-.16.71-.47.97-.32.25-.68.38-1.1.38-.27,0-.53-.06-.78-.19s-.46-.32-.63-.59l-2.77-4.12c-.24-.36-.49-.63-.76-.79-.27-.16-.6-.24-1.01-.24h-1.7v4.24c0,.5-.14.9-.43,1.2s-.68.44-1.17.44-.9-.15-1.2-.44-.44-.69-.44-1.2v-11.76c0-.49.13-.87.4-1.13s.64-.4,1.13-.4h5.27c1.74,0,3.05.38,3.94,1.14.89.76,1.33,1.87,1.33,3.31,0,1.13-.31,2.08-.94,2.83s-1.52,1.25-2.67,1.49c.42.08.79.25,1.12.49.33.25.65.6.96,1.06l1.6,2.39c.21.31.31.61.31.9ZM1323.83,352.27c.42-.33.63-.84.63-1.54s-.21-1.23-.63-1.55c-.42-.32-1.1-.48-2.04-.48h-3.13v4.07h3.13c.94,0,1.62-.16,2.04-.49Z"/>
          <path class="cls-10" d="M1332.02,360.51c-.83-.44-1.46-1.06-1.91-1.87-.45-.81-.67-1.75-.67-2.85s.22-2.04.67-2.85c.45-.8,1.08-1.42,1.91-1.86.83-.43,1.79-.65,2.88-.65s2.05.22,2.88.65c.83.43,1.46,1.05,1.91,1.86.45.81.67,1.75.67,2.85s-.22,2.04-.67,2.85-1.08,1.43-1.91,1.87-1.78.66-2.88.66-2.05-.22-2.88-.66ZM1337.21,355.79c0-.99-.2-1.74-.6-2.23-.4-.49-.97-.73-1.71-.73-1.54,0-2.31.99-2.31,2.96s.77,2.96,2.31,2.96,2.31-.99,2.31-2.96Z"/>
          <path class="cls-10" d="M1344.37,360.51c-.83-.44-1.46-1.06-1.91-1.87s-.67-1.75-.67-2.85.22-2.04.67-2.85c.45-.8,1.08-1.42,1.91-1.86.83-.43,1.79-.65,2.88-.65s2.05.22,2.88.65c.83.43,1.46,1.05,1.91,1.86.45.81.67,1.75.67,2.85s-.22,2.04-.67,2.85c-.45.81-1.08,1.43-1.91,1.87s-1.79.66-2.88.66-2.05-.22-2.88-.66ZM1349.55,355.79c0-.99-.2-1.74-.6-2.23-.4-.49-.97-.73-1.71-.73-1.54,0-2.31.99-2.31,2.96s.77,2.96,2.31,2.96,2.31-.99,2.31-2.96Z"/>
          <path class="cls-10" d="M1369.92,351.46c.6.68.9,1.79.9,3.33v4.85c0,.49-.15.86-.44,1.11-.29.25-.67.38-1.13.38s-.83-.13-1.13-.38-.46-.62-.46-1.11v-4.89c0-.67-.12-1.14-.35-1.42-.23-.27-.58-.41-1.06-.41-.59,0-1.06.2-1.41.61-.35.41-.52.97-.52,1.7v4.41c0,.49-.15.86-.44,1.11s-.67.38-1.13.38-.83-.13-1.13-.38c-.31-.25-.46-.62-.46-1.11v-4.89c0-.67-.12-1.14-.35-1.42-.23-.27-.58-.41-1.06-.41-.59,0-1.06.2-1.41.61-.35.41-.52.97-.52,1.7v4.41c0,.49-.15.86-.45,1.11s-.68.38-1.12.38-.83-.13-1.13-.38c-.31-.25-.46-.62-.46-1.11v-7.71c0-.46.16-.82.47-1.07.32-.25.7-.38,1.14-.38.42,0,.77.12,1.05.37.28.25.42.58.42,1.02v.21c.34-.53.77-.94,1.31-1.22.54-.28,1.15-.42,1.84-.42.74,0,1.37.15,1.88.45.51.3.91.79,1.19,1.46.32-.59.78-1.05,1.38-1.4s1.27-.51,2.03-.51c1.12,0,1.98.34,2.58,1.02Z"/>
        </g>
        <g>
          <path class="cls-9" d="M1319.04,253.62c1.29-1.29,1.29-3.37,0-4.66-1.29-1.29-3.37-1.29-4.66,0l-10.54,10.54c.89.63,1.73,1.34,2.52,2.13.79.79,1.5,1.64,2.13,2.52l10.54-10.54Z"/>
          <path class="cls-9" d="M1230.88,292.61l3.25,5.35c8.93,14.67,21.24,26.99,35.91,35.91l5.35,3.25c8.33,4.25,19.11,1.52,23.77-7.29,2.2-4.17,4.29-8.83,5.62-13.47,2.14-7.49,2.89-14.31,3.13-19.01.14-2.81.21-4.22-.46-5.95-.67-1.74-1.83-2.9-4.15-5.21l-21.18-21.18c-2.16-2.16-3.24-3.24-4.86-3.9-1.62-.67-2.92-.66-5.5-.65-4.89.02-12.22.53-20.11,2.79-4.64,1.33-9.31,3.42-13.47,5.62-8.81,4.65-11.55,15.43-7.29,23.77Z"/>
          <path class="cls-7" d="M1306.36,261.64c-7.62-7.62-19.98-7.62-27.6,0l-.17.17c1.02.68,2,1.67,3.52,3.19l21.18,21.18c1.32,1.32,2.27,2.27,2.96,3.16l.1-.1c7.62-7.62,7.62-19.98,0-27.6Z"/>
        </g>
      </g>
    </g>
  </g>
</svg>